STARTFONT 2.1
COMMENT
COMMENT Converted from OpenType font "Q:\font stuff\winfont\Malstock ITC TT.ttf" by "otf2bdf 3.0".
COMMENT
FONT -FreeType-Malstock ITC TT-Medium-R-Normal--92-920-72-72-P-192-ISO10646-1
SIZE 92 72 72
FONTBOUNDINGBOX 82 109 -8 -21
STARTPROPERTIES 19
FOUNDRY "FreeType"
FAMILY_NAME "Malstock ITC TT"
WEIGHT_NAME "Medium"
SLANT "R"
SETWIDTH_NAME "Normal"
ADD_STYLE_NAME ""
PIXEL_SIZE 92
POINT_SIZE 920
RESOLUTION_X 72
RESOLUTION_Y 72
SPACING "P"
AVERAGE_WIDTH 192
CHARSET_REGISTRY "ISO10646"
CHARSET_ENCODING "1"
FONT_ASCENT 88
FONT_DESCENT 21
COPYRIGHT "(c) Copyright 1997 International Typeface Corporation. All rights reserved."
_OTF_FONTFILE "Q:\font stuff\winfont\Malstock ITC TT.ttf"
_OTF_PSNAME "MalstockITCTT"
ENDPROPERTIES
CHARS 252
STARTCHAR 0020
ENCODING 32
SWIDTH 108 0
DWIDTH 10 0
BBX 0 0 0 0
BITMAP
ENDCHAR
STARTCHAR 0021
ENCODING 33
SWIDTH 119 0
DWIDTH 11 0
BBX 7 70 2 0
BITMAP
48
78
78
78
78
78
78
78
78
78
78
78
78
78
78
78
78
78
78
78
78
78
78
78
78
78
78
78
78
78
78
78
78
78
78
78
78
78
78
78
78
78
78
78
78
78
78
78
78
78
78
78
78
48
08
00
00
00
00
00
00
00
00
10
38
7C
FE
7C
38
10
ENDCHAR
STARTCHAR 0022
ENCODING 34
SWIDTH 195 0
DWIDTH 18 0
BBX 12 12 3 58
BITMAP
F0F0
F0F0
F0F0
F0F0
F0F0
F0F0
F0F0
F0F0
F0F0
F0F0
F0F0
9090
ENDCHAR
STARTCHAR 0023
ENCODING 35
SWIDTH 271 0
DWIDTH 25 0
BBX 24 70 0 -1
BITMAP
002010
00281A
00381E
00381E
00781E
00701C
00701C
00701C
00703C
00703C
00703C
00F03C
00E03C
00E038
00E038
00E078
00E078
00E078
00E078
1FFFFF
1FFFFF
1FFFFF
1FFFFF
01C0F0
01C0F0
01C0F0
03C0F0
0380E0
0380E0
0380E0
0381E0
0381E0
0381E0
0781E0
0701E0
0701C0
0701C0
0703C0
0703C0
0703C0
0703C0
0E03C0
0E0380
FFFFF8
FFFFF8
FFFFF8
FFFFF8
0E0780
1E0780
1C0700
1C0700
1C0F00
1C0F00
1C0F00
1C0F00
3C0F00
380F00
380E00
380E00
381E00
381E00
381E00
381E00
701E00
701C00
701C00
703C00
703C00
502400
100400
ENDCHAR
STARTCHAR 0024
ENCODING 36
SWIDTH 217 0
DWIDTH 20 0
BBX 14 86 3 -9
BITMAP
0400
0680
0780
0780
0780
0780
0780
0780
1FE0
3FF0
7FF8
7FFC
F83C
F03C
F03C
F03C
F03C
F03C
F03C
F03C
F03C
F03C
F03C
F03C
F03C
F03C
F03C
F03C
F03C
F03C
F03C
F034
F020
F000
F000
F000
F000
F000
F800
7E00
7F00
3F80
1FC0
0FE0
07F0
03F8
01F8
00FC
007C
003C
003C
003C
803C
D03C
F03C
F03C
F03C
F03C
F03C
F03C
F03C
F03C
F03C
F03C
F03C
F03C
F03C
F03C
F03C
F03C
F03C
F03C
F83C
7CFC
7FF8
3FF0
0FE0
0780
0780
0780
0780
0780
0780
0780
0680
0400
ENDCHAR
STARTCHAR 0025
ENCODING 37
SWIDTH 402 0
DWIDTH 37 0
BBX 30 74 3 0
BITMAP
00000100
00000100
000001B0
0F8003F0
1FE003E0
3FF003E0
7FF003E0
78F807E0
F07807C0
F07807C0
F0780FC0
F0780F80
F0780F80
F0780F80
F0781F80
F0781F00
F0781F00
F0783F00
F0783E00
F0783E00
F0783E00
F0787E00
F0787C00
F0787C00
F078FC00
78F8F800
7FF0F800
3FF0F800
1FE1F800
0F81F000
0001F000
0003F000
0003E000
0003E000
0003E000
0007E000
0007C000
0007C000
000FC000
000F8000
000F8000
000F8000
001F8000
001F0000
001F0000
003F0000
003E0000
003E07C0
003E0FF0
007E1FF8
007C3FF8
007C3C7C
00FC783C
00F8783C
00F8783C
00F8783C
01F8783C
01F0783C
01F0783C
03F0783C
03E0783C
03E0783C
03E0783C
07E0783C
07C0783C
07C0783C
0FC0783C
0F80783C
0F80783C
0F803C7C
1F803FF8
1B001FF8
01000FF0
010007C0
ENDCHAR
STARTCHAR 0026
ENCODING 38
SWIDTH 260 0
DWIDTH 24 0
BBX 21 71 3 -1
BITMAP
07C000
1FE000
3FF800
7FF800
787C00
F03C00
F03C00
F03C00
F03C00
F03C00
F03C00
F03C00
F02400
F00000
F00000
F00000
F00000
F00000
F00000
F00000
F00000
F00000
F02400
F03C00
F03C00
F03C00
F03C00
F03C00
F03C00
F03C00
F03C00
F83C00
7C3C00
3FFFF0
1FFFE0
1FFFF0
3FFFF8
783C00
F83C00
F03C00
F03C00
F03C00
F03C00
F03C00
F03C00
F03C00
F03C00
F03C00
F03C00
F03C00
F03C00
F03C00
F03C00
F03C00
F03C00
F03C00
F03C00
F03C00
F03C00
F03C00
F03C00
F03C00
F03C00
F03C00
F03C00
F03C00
787C00
7FFC00
3FFC00
1FE400
0FC000
ENDCHAR
STARTCHAR 0027
ENCODING 39
SWIDTH 108 0
DWIDTH 10 0
BBX 4 12 3 58
BITMAP
F0
F0
F0
F0
F0
F0
F0
F0
F0
F0
F0
90
ENDCHAR
STARTCHAR 0028
ENCODING 40
SWIDTH 163 0
DWIDTH 15 0
BBX 11 92 3 -18
BITMAP
07E0
1FC0
3FC0
7FE0
7F00
F800
F000
F000
F000
F000
F000
F000
F000
F000
F000
F000
F000
F000
F000
F000
F000
F000
F000
F000
F000
F000
F000
F000
F000
F000
F000
F000
F000
F000
F000
F000
F000
F000
F000
F000
F000
F000
F000
F000
F000
F000
F000
F000
F000
F000
F000
F000
F000
F000
F000
F000
F000
F000
F000
F000
F000
F000
F000
F000
F000
F000
F000
F000
F000
F000
F000
F000
F000
F000
F000
F000
F000
F000
F000
F000
F000
F000
F000
F000
F000
F000
F000
7800
7FE0
3FC0
1FC0
0FE0
ENDCHAR
STARTCHAR 0029
ENCODING 41
SWIDTH 163 0
DWIDTH 15 0
BBX 12 92 1 -18
BITMAP
FE00
3F80
7FC0
FFE0
01E0
00F0
00F0
00F0
00F0
00F0
00F0
00F0
00F0
00F0
00F0
00F0
00F0
00F0
00F0
00F0
00F0
00F0
00F0
00F0
00F0
00F0
00F0
00F0
00F0
00F0
00F0
00F0
00F0
00F0
00F0
00F0
00F0
00F0
00F0
00F0
00F0
00F0
00F0
00F0
00F0
00F0
00F0
00F0
00F0
00F0
00F0
00F0
00F0
00F0
00F0
00F0
00F0
00F0
00F0
00F0
00F0
00F0
00F0
00F0
00F0
00F0
00F0
00F0
00F0
00F0
00F0
00F0
00F0
00F0
00F0
00F0
00F0
00F0
00F0
00F0
00F0
00F0
00F0
00F0
00F0
00F0
00F0
01E0
FFE0
3FC0
7F80
FF00
ENDCHAR
STARTCHAR 002A
ENCODING 42
SWIDTH 184 0
DWIDTH 17 0
BBX 16 17 1 53
BITMAP
0100
0180
03C0
07E0
07E0
13C8
399C
7C3E
FE7F
FC3E
799C
33C8
07E0
0FE0
07C0
0380
0100
ENDCHAR
STARTCHAR 002B
ENCODING 43
SWIDTH 239 0
DWIDTH 22 0
BBX 18 17 2 11
BITMAP
01E000
01E000
01E000
01E000
01E000
01E000
01E000
FFFFC0
FFFFC0
FFFFC0
FFFFC0
01E000
01E000
01E000
01E000
01E000
01E000
ENDCHAR
STARTCHAR 002C
ENCODING 44
SWIDTH 119 0
DWIDTH 11 0
BBX 8 12 2 -7
BITMAP
0F
0F
0E
1E
1E
3E
3C
7C
7C
F8
30
30
ENDCHAR
STARTCHAR 002D
ENCODING 45
SWIDTH 173 0
DWIDTH 16 0
BBX 11 4 3 17
BITMAP
FFE0
7FE0
7FE0
FFE0
ENDCHAR
STARTCHAR 002E
ENCODING 46
SWIDTH 119 0
DWIDTH 11 0
BBX 7 7 2 -1
BITMAP
10
38
7C
FE
7C
38
10
ENDCHAR
STARTCHAR 002F
ENCODING 47
SWIDTH 195 0
DWIDTH 18 0
BBX 17 74 0 0
BITMAP
000800
000C80
000F80
000F80
001F80
001F00
001F00
001F00
001F00
001F00
003F00
003E00
003E00
003E00
003E00
003E00
003E00
007C00
007C00
007C00
007C00
007C00
007C00
00F800
00F800
00F800
00F800
00F800
00F800
01F000
01F000
01F000
01F000
01F000
01F000
03E000
03E000
03E000
03E000
03E000
03E000
07E000
07C000
07C000
07C000
07C000
07C000
0FC000
0F8000
0F8000
0F8000
0F8000
0F8000
1F8000
1F0000
1F0000
1F0000
1F0000
1F0000
3F0000
3E0000
3E0000
3E0000
3E0000
3E0000
7E0000
7C0000
7C0000
7C0000
7C0000
7C0000
FC0000
F80000
C80000
ENDCHAR
STARTCHAR 0030
ENCODING 48
SWIDTH 217 0
DWIDTH 20 0
BBX 14 71 3 -1
BITMAP
07C0
1FF0
3FF8
7FF8
787C
F03C
F03C
F03C
F03C
F03C
F03C
F03C
F03C
F03C
F03C
F03C
F03C
F03C
F03C
F03C
F03C
F03C
F03C
F03C
F03C
F03C
F03C
F03C
F03C
F03C
F03C
F03C
F03C
F03C
F03C
F03C
F03C
F03C
F03C
F03C
F03C
F03C
F03C
F03C
F03C
F03C
F03C
F03C
F03C
F03C
F03C
F03C
F03C
F03C
F03C
F03C
F03C
F03C
F03C
F03C
F03C
F03C
F03C
F03C
F03C
F03C
787C
7FF8
3FF8
1FF0
07C0
ENDCHAR
STARTCHAR 0031
ENCODING 49
SWIDTH 195 0
DWIDTH 18 0
BBX 16 71 1 -1
BITMAP
0010
0030
0070
00F0
01F0
03F0
07F0
0FF0
1FF0
3FF0
7EF0
FEF0
18F0
10F0
00F0
00F0
00F0
00F0
00F0
00F0
00F0
00F0
00F0
00F0
00F0
00F0
00F0
00F0
00F0
00F0
00F0
00F0
00F0
00F0
00F0
00F0
00F0
00F0
00F0
00F0
00F0
00F0
00F0
00F0
00F0
00F0
00F0
00F0
00F0
00F0
00F0
00F0
00F0
00F0
00F0
00F0
00F0
00F0
00F0
00F0
00F0
00F0
00F0
00F0
00F0
00F0
00F0
1FFF
0FFE
0FFE
1FFF
ENDCHAR
STARTCHAR 0032
ENCODING 50
SWIDTH 217 0
DWIDTH 20 0
BBX 14 71 3 -1
BITMAP
07C0
1FF0
3FF8
7FF8
787C
F03C
F03C
F03C
F03C
F03C
F03C
F03C
F03C
F03C
F03C
F03C
F03C
F03C
F03C
F03C
F03C
F03C
F03C
F03C
D03C
803C
003C
003C
003C
003C
003C
007C
00FC
01F8
03F8
07F0
0FE0
1FC0
3F80
7F00
7E00
FC00
F800
F000
F000
F000
F000
F000
F000
F000
F000
F000
F000
F000
F000
F000
F000
F024
F03C
F03C
F03C
F03C
F03C
F03C
F03C
F03C
F03C
FFFC
FFFC
FFFC
FFFC
ENDCHAR
STARTCHAR 0033
ENCODING 51
SWIDTH 217 0
DWIDTH 20 0
BBX 14 71 3 -1
BITMAP
0FC0
1FE0
3FF0
7FF8
F87C
F03C
F03C
F03C
F03C
F03C
F03C
F03C
F03C
F03C
F03C
F03C
F03C
F03C
F03C
903C
003C
003C
003C
003C
003C
003C
003C
003C
003C
003C
003C
003C
0078
1FF8
0FE0
0FE0
1FF8
0078
003C
003C
003C
003C
003C
003C
003C
903C
903C
F03C
F03C
F03C
F03C
F03C
F03C
F03C
F03C
F03C
F03C
F03C
F03C
F03C
F03C
F03C
F03C
F03C
F03C
F03C
F87C
7FF8
3FF0
1FE0
0FC0
ENDCHAR
STARTCHAR 0034
ENCODING 52
SWIDTH 217 0
DWIDTH 20 0
BBX 18 71 1 -1
BITMAP
000400
030C00
03BC00
03FC00
03FC00
03FC00
03FC00
07BC00
07BC00
07BC00
073C00
073C00
0F3C00
0E3C00
0E3C00
0E3C00
0E3C00
1C3C00
1C3C00
1C3C00
1C3C00
1C3C00
383C00
383C00
383C00
383C00
383C00
703C00
703C00
703C00
703C00
703C00
F03C00
FFFFC0
FFFF00
FFFF00
FFFFC0
003C00
003C00
003C00
003C00
003C00
003C00
003C00
003C00
003C00
003C00
003C00
003C00
003C00
003C00
003C00
003C00
003C00
003C00
003C00
003C00
003C00
003C00
003C00
003C00
003C00
003C00
003C00
003C00
003C00
003C00
07FFC0
03FF00
03FF00
07FFC0
ENDCHAR
STARTCHAR 0035
ENCODING 53
SWIDTH 217 0
DWIDTH 20 0
BBX 14 71 3 -1
BITMAP
FFFC
FFF8
FFF8
FFFC
F000
F000
F000
F000
F000
F000
F000
F000
F000
F000
F000
F000
F000
F000
F000
F000
F000
F000
F000
F000
F000
F000
F000
F000
F800
FC00
7E00
7F00
3F80
1FC0
0FE0
07F0
03F8
01F8
00FC
007C
003C
003C
003C
003C
003C
803C
D03C
F03C
F03C
F03C
F03C
F03C
F03C
F03C
F03C
F03C
F03C
F03C
F03C
F03C
F03C
F03C
F03C
F03C
F03C
F03C
787C
7FF8
3FF8
1FF0
07C0
ENDCHAR
STARTCHAR 0036
ENCODING 54
SWIDTH 217 0
DWIDTH 20 0
BBX 14 71 3 -1
BITMAP
07C0
1FF0
3FF8
7FF8
787C
F03C
F03C
F03C
F03C
F03C
F03C
F03C
F03C
F03C
F03C
F03C
F03C
F03C
F034
F020
F000
F000
F000
F000
F000
F000
F000
F000
F000
F000
F000
F000
F000
FFC0
FFF0
FFF8
FFF8
F87C
F03C
F03C
F03C
F03C
F03C
F03C
F03C
F03C
F03C
F03C
F03C
F03C
F03C
F03C
F03C
F03C
F03C
F03C
F03C
F03C
F03C
F03C
F03C
F03C
F03C
F03C
F03C
F03C
787C
7FF8
3FF8
1FF0
07C0
ENDCHAR
STARTCHAR 0037
ENCODING 55
SWIDTH 206 0
DWIDTH 19 0
BBX 17 71 2 -1
BITMAP
FFFF80
FFFF80
FFFF00
FFFF00
F01F00
F01F00
F01F00
F01F00
F01F00
F03E00
F03E00
F03E00
D03E00
903E00
803E00
007E00
007C00
007C00
007C00
007C00
007C00
007C00
00F800
00F800
00F800
00F800
00F800
00F800
01F800
01F000
01F000
01F000
01F000
01F000
01F000
03E000
03E000
03E000
03E000
03E000
03E000
07E000
07C000
07C000
07C000
07C000
07C000
07C000
0FC000
0F8000
0F8000
0F8000
0F8000
0F8000
0F8000
1F0000
1F0000
1F0000
1F0000
1F0000
1F0000
3F0000
3E0000
3E0000
3E0000
3E0000
3E0000
3E0000
7C0000
640000
400000
ENDCHAR
STARTCHAR 0038
ENCODING 56
SWIDTH 217 0
DWIDTH 20 0
BBX 14 71 3 -1
BITMAP
07C0
1FF0
3FF8
7FF8
787C
F03C
F03C
F03C
F03C
F03C
F03C
F03C
F03C
F03C
F03C
F03C
F03C
F03C
F03C
F03C
F03C
F03C
F03C
F03C
F03C
F03C
F03C
F03C
F03C
F03C
F03C
703C
7878
3FF8
1FF0
3FF0
3FF8
787C
F03C
F03C
F03C
F03C
F03C
F03C
F03C
F03C
F03C
F03C
F03C
F03C
F03C
F03C
F03C
F03C
F03C
F03C
F03C
F03C
F03C
F03C
F03C
F03C
F03C
F03C
F03C
F03C
787C
7FF8
3FF8
1FF0
07C0
ENDCHAR
STARTCHAR 0039
ENCODING 57
SWIDTH 217 0
DWIDTH 20 0
BBX 14 71 3 -1
BITMAP
0F80
3FE0
7FF0
7FF8
F878
F03C
F03C
F03C
F03C
F03C
F03C
F03C
F03C
F03C
F03C
F03C
F03C
F03C
F03C
F03C
F03C
F03C
F03C
F03C
F03C
F03C
F03C
F03C
F03C
F03C
F03C
F03C
F03C
F87C
7FFC
7FFC
3FFC
0FFC
003C
003C
003C
003C
003C
003C
003C
003C
003C
003C
003C
003C
003C
103C
B03C
F03C
F03C
F03C
F03C
F03C
F03C
F03C
F03C
F03C
F03C
F03C
F03C
F03C
F878
7FF8
7FF0
3FE0
0FC0
ENDCHAR
STARTCHAR 003A
ENCODING 58
SWIDTH 119 0
DWIDTH 11 0
BBX 7 39 2 -1
BITMAP
10
38
7C
FE
7C
38
30
00
00
00
00
00
00
00
00
00
00
00
00
00
00
00
00
00
00
00
00
00
00
00
00
00
00
38
7C
FE
FC
38
10
ENDCHAR
STARTCHAR 003B
ENCODING 59
SWIDTH 119 0
DWIDTH 11 0
BBX 8 44 2 -7
BITMAP
10
38
7C
FE
7C
38
30
00
00
00
00
00
00
00
00
00
00
00
00
00
00
00
00
00
00
00
00
00
00
00
00
00
0F
0F
0F
1E
1E
1E
3C
7C
7C
F8
30
30
ENDCHAR
STARTCHAR 003C
ENCODING 60
SWIDTH 163 0
DWIDTH 15 0
BBX 11 27 3 5
BITMAP
0020
0060
00E0
00E0
01E0
03E0
07E0
0FE0
0FC0
1F80
3F00
7F00
7E00
FC00
FE00
7E00
3F00
1F80
1FC0
0FE0
07E0
03E0
01E0
01E0
00E0
0060
0020
ENDCHAR
STARTCHAR 003D
ENCODING 61
SWIDTH 239 0
DWIDTH 22 0
BBX 17 15 2 12
BITMAP
FFFF80
FFFF80
FFFF80
FFFF80
000000
000000
000000
000000
000000
000000
000000
FFFF80
FFFF80
FFFF80
FFFF80
ENDCHAR
STARTCHAR 003E
ENCODING 62
SWIDTH 163 0
DWIDTH 15 0
BBX 11 27 3 5
BITMAP
8000
C000
C000
E000
F000
F800
FC00
FC00
7E00
3F00
3F80
1F80
0FC0
07E0
0FE0
1FC0
1F80
3F00
7E00
FE00
FC00
F800
F000
E000
E000
C000
8000
ENDCHAR
STARTCHAR 003F
ENCODING 63
SWIDTH 217 0
DWIDTH 20 0
BBX 14 71 3 -1
BITMAP
07C0
1FF0
3FF8
7FF8
787C
F03C
F03C
F03C
F03C
F03C
F03C
F03C
F03C
F03C
F03C
F03C
F03C
F03C
F03C
F03C
F03C
F03C
F03C
F03C
F03C
F03C
903C
003C
003C
003C
003C
003C
003C
003C
003C
003C
003C
003C
007C
00FC
01F8
03F8
07F0
07E0
0FC0
0F80
0F00
0F00
0F00
0F00
0F00
0F00
0F00
0F00
0D00
0800
0000
0000
0000
0000
0000
0000
0000
0000
0000
0300
0F80
1FE0
0FC0
0780
0300
ENDCHAR
STARTCHAR 0040
ENCODING 64
SWIDTH 402 0
DWIDTH 37 0
BBX 30 71 3 -1
BITMAP
001FE000
007FFC00
01FFFF00
03FFFF80
07F01FC0
0FC007E0
1F0003F0
3E0001F0
3C0000F8
7C000078
7800007C
7800003C
F800003C
F000003C
F000003C
F007803C
F01FE43C
F03FFC3C
F07FFC3C
F0787C3C
F0F83C3C
F0F03C3C
F0F03C3C
F0F03C3C
F0F03C3C
F0F03C3C
F0F03C3C
F0F03C3C
F0F03C3C
F0F03C3C
F0F03C3C
F0F03C3C
F0F03C3C
F0F03C3C
F0F03C3C
F0F03C3C
F0F03C3C
F0F03C3C
F0F03C3C
F0F03C3C
F0F03C3C
F0F03C3C
F0F03C3C
F0F03C3C
F0F03C3C
F0F03C3C
F0F03C3C
F0F03C3C
F0787E3C
F07FFFFC
F03FFFF8
F01FEFF0
F00F83E0
F0000000
F0000000
F0000000
F0000000
F0000000
78000000
78000000
78000000
7C000000
3C000000
3E000000
1F000200
0FC00600
07F01E00
03FFFF80
01FFFE00
007FFC00
001FE000
ENDCHAR
STARTCHAR 0041
ENCODING 65
SWIDTH 217 0
DWIDTH 20 0
BBX 17 71 2 -1
BITMAP
002000
066000
07E000
07E000
07E000
07E000
07E000
07E000
07E000
07E000
07E000
07F000
07F000
0FF000
0EF000
0EF000
0EF000
0EF000
0EF000
0EF000
0EF000
0EF000
0EF000
0EF800
0EF800
1EF800
1EF800
1EF800
1EF800
1E7800
1E7800
1C7800
1C7800
1C7800
1C7800
1C7C00
3C7C00
3C7C00
3C3C00
3C3C00
3C3C00
3C3C00
3C3C00
3C3C00
3C3C00
3C3C00
3C3C00
3C1E00
7C3E00
7E7E00
7FFE00
7FFE00
7BDE00
799E00
781E00
781E00
781E00
781E00
780F00
700F00
F00F00
F00F00
F00F00
F00F00
F00F00
F00F00
F00F00
F00F00
F00F00
B00D00
100080
ENDCHAR
STARTCHAR 0042
ENCODING 66
SWIDTH 217 0
DWIDTH 20 0
BBX 14 71 3 -1
BITMAP
FFC0
FFE0
FFF8
FFF8
F07C
F03C
F03C
F03C
F03C
F03C
F03C
F03C
F03C
F03C
F03C
F03C
F03C
F03C
F03C
F03C
F03C
F03C
F03C
F03C
F03C
F03C
F03C
F03C
F03C
F03C
F03C
F03C
F07C
FFF8
FFF0
FFE0
FFF8
F07C
F03C
F03C
F03C
F03C
F03C
F03C
F03C
F03C
F03C
F03C
F03C
F03C
F03C
F03C
F03C
F03C
F03C
F03C
F03C
F03C
F03C
F03C
F03C
F03C
F03C
F03C
F03C
F03C
F07C
FFF8
FFF8
FFF0
FFC0
ENDCHAR
STARTCHAR 0043
ENCODING 67
SWIDTH 217 0
DWIDTH 20 0
BBX 14 71 3 -1
BITMAP
07C0
1FF0
3FF8
7FF8
787C
F03C
F03C
F03C
F03C
F03C
F03C
F03C
F03C
F03C
F03C
F03C
F03C
F03C
F03C
F03C
F03C
F034
F020
F000
F000
F000
F000
F000
F000
F000
F000
F000
F000
F000
F000
F000
F000
F000
F000
F000
F000
F000
F000
F000
F000
F020
F034
F03C
F03C
F03C
F03C
F03C
F03C
F03C
F03C
F03C
F03C
F03C
F03C
F03C
F03C
F03C
F03C
F03C
F03C
F03C
787C
7FF8
3FF8
1FF0
07C0
ENDCHAR
STARTCHAR 0044
ENCODING 68
SWIDTH 217 0
DWIDTH 20 0
BBX 14 71 3 -1
BITMAP
FFC0
FFE0
FFF8
FFF8
F07C
F03C
F03C
F03C
F03C
F03C
F03C
F03C
F03C
F03C
F03C
F03C
F03C
F03C
F03C
F03C
F03C
F03C
F03C
F03C
F03C
F03C
F03C
F03C
F03C
F03C
F03C
F03C
F03C
F03C
F03C
F03C
F03C
F03C
F03C
F03C
F03C
F03C
F03C
F03C
F03C
F03C
F03C
F03C
F03C
F03C
F03C
F03C
F03C
F03C
F03C
F03C
F03C
F03C
F03C
F03C
F03C
F03C
F03C
F03C
F03C
F03C
F07C
FFF8
FFF8
FFF0
FFC0
ENDCHAR
STARTCHAR 0045
ENCODING 69
SWIDTH 195 0
DWIDTH 18 0
BBX 13 71 3 -1
BITMAP
FFF8
FFF0
FFF0
FFF8
F000
F000
F000
F000
F000
F000
F000
F000
F000
F000
F000
F000
F000
F000
F000
F000
F000
F000
F000
F000
F000
F000
F000
F000
F000
F000
F000
F000
F000
FFF8
FFF0
FFF0
FFF8
F000
F000
F000
F000
F000
F000
F000
F000
F000
F000
F000
F000
F000
F000
F000
F000
F000
F000
F000
F000
F000
F000
F000
F000
F000
F000
F000
F000
F000
F000
FFF8
FFF0
FFF0
FFF8
ENDCHAR
STARTCHAR 0046
ENCODING 70
SWIDTH 184 0
DWIDTH 17 0
BBX 13 71 3 -1
BITMAP
FFF8
FFF0
FFF0
FFF8
F000
F000
F000
F000
F000
F000
F000
F000
F000
F000
F000
F000
F000
F000
F000
F000
F000
F000
F000
F000
F000
F000
F000
F000
F000
F000
F000
F000
F000
FFF8
FFF0
FFF0
FFF8
F000
F000
F000
F000
F000
F000
F000
F000
F000
F000
F000
F000
F000
F000
F000
F000
F000
F000
F000
F000
F000
F000
F000
F000
F000
F000
F000
F000
F000
F000
F000
F000
D000
8000
ENDCHAR
STARTCHAR 0047
ENCODING 71
SWIDTH 217 0
DWIDTH 20 0
BBX 18 71 3 -1
BITMAP
07C000
1FF000
3FF800
7FF800
787C00
F03C00
F03C00
F03C00
F03C00
F03C00
F03C00
F03C00
F03C00
F03C00
F03C00
F03C00
F03C00
F03C00
F03C00
F03C00
F03C00
F03400
F02000
F00000
F00000
F00000
F00000
F00000
F00000
F00000
F00000
F00000
F00000
F03FC0
F03F80
F03F80
F03FC0
F03C00
F03C00
F03C00
F03C00
F03C00
F03C00
F03C00
F03C00
F03C00
F03C00
F03C00
F03C00
F03C00
F03C00
F03C00
F03C00
F03C00
F03C00
F03C00
F03C00
F03C00
F03C00
F03C00
F03C00
F03C00
F03C00
F03C00
F03C00
F03C00
787C00
7FF800
3FF800
1FF000
07C000
ENDCHAR
STARTCHAR 0048
ENCODING 72
SWIDTH 217 0
DWIDTH 20 0
BBX 14 71 3 -1
BITMAP
8020
9024
F03C
F03C
F03C
F03C
F03C
F03C
F03C
F03C
F03C
F03C
F03C
F03C
F03C
F03C
F03C
F03C
F03C
F03C
F03C
F03C
F03C
F03C
F03C
F03C
F03C
F03C
F03C
F03C
F03C
F03C
F03C
FFFC
FFFC
FFFC
FFFC
F03C
F03C
F03C
F03C
F03C
F03C
F03C
F03C
F03C
F03C
F03C
F03C
F03C
F03C
F03C
F03C
F03C
F03C
F03C
F03C
F03C
F03C
F03C
F03C
F03C
F03C
F03C
F03C
F03C
F03C
F03C
F03C
D034
8020
ENDCHAR
STARTCHAR 0049
ENCODING 73
SWIDTH 119 0
DWIDTH 11 0
BBX 4 71 3 -1
BITMAP
80
90
F0
F0
F0
F0
F0
F0
F0
F0
F0
F0
F0
F0
F0
F0
F0
F0
F0
F0
F0
F0
F0
F0
F0
F0
F0
F0
F0
F0
F0
F0
F0
F0
F0
F0
F0
F0
F0
F0
F0
F0
F0
F0
F0
F0
F0
F0
F0
F0
F0
F0
F0
F0
F0
F0
F0
F0
F0
F0
F0
F0
F0
F0
F0
F0
F0
F0
F0
D0
80
ENDCHAR
STARTCHAR 004A
ENCODING 74
SWIDTH 217 0
DWIDTH 20 0
BBX 14 71 3 -1
BITMAP
FFFC
7FFC
7FFC
FFFC
003C
003C
003C
003C
003C
003C
003C
003C
003C
003C
003C
003C
003C
003C
003C
003C
003C
003C
003C
003C
003C
003C
003C
003C
003C
003C
003C
003C
003C
003C
003C
003C
003C
003C
003C
003C
003C
003C
003C
003C
003C
903C
903C
F03C
F03C
F03C
F03C
F03C
F03C
F03C
F03C
F03C
F03C
F03C
F03C
F03C
F03C
F03C
F03C
F03C
F03C
F03C
F87C
7FF8
3FF0
1FE0
0FC0
ENDCHAR
STARTCHAR 004B
ENCODING 75
SWIDTH 217 0
DWIDTH 20 0
BBX 15 71 3 0
BITMAP
8022
9036
F03E
F03E
F03E
F07C
F07C
F07C
F07C
F07C
F07C
F07C
F07C
F0F8
F0F8
F0F8
F0F8
F0F8
F0F8
F0F8
F0F8
F1F8
F1F0
F1F0
F1F0
F1F0
F1F0
F1F0
F1F0
F3F0
F3E0
F3E0
F3E0
FFE0
FFF0
FFF8
FFFC
F07C
F03C
F03C
F03C
F03C
F03C
F03C
F03C
F03C
F03C
F03C
F03C
F03C
F03C
F03C
F03C
F03C
F03C
F03C
F03C
F03C
F03C
F03C
F03C
F03C
F03C
F03C
F03C
F03C
F03C
F03C
F03C
D034
8020
ENDCHAR
STARTCHAR 004C
ENCODING 76
SWIDTH 195 0
DWIDTH 18 0
BBX 14 71 3 -1
BITMAP
8000
9000
F000
F000
F000
F000
F000
F000
F000
F000
F000
F000
F000
F000
F000
F000
F000
F000
F000
F000
F000
F000
F000
F000
F000
F000
F000
F000
F000
F000
F000
F000
F000
F000
F000
F000
F000
F000
F000
F000
F000
F000
F000
F000
F000
F000
F000
F000
F000
F000
F000
F000
F000
F000
F000
F000
F000
F024
F034
F03C
F03C
F03C
F03C
F03C
F03C
F03C
F03C
FFFC
FFFC
FFFC
FFFC
ENDCHAR
STARTCHAR 004D
ENCODING 77
SWIDTH 326 0
DWIDTH 30 0
BBX 23 71 3 -1
BITMAP
880020
C80032
F8003E
F8003E
F8003E
F8003E
F8003E
FC003E
FC003E
FC007E
FC007E
FC007E
FC007E
FC007E
FC007E
FE007E
FE006E
FE00EE
FE00EE
FE00EE
F600EE
F600EE
F600EE
F700EE
F700EE
F700EE
F701CE
F701CE
F701CE
F701CE
F301CE
F381DE
F381DE
F381DE
F383DE
F3839E
F3839E
F3839E
F3839E
F1C39E
F1C39E
F1C39E
F1C39E
F1C71E
F1C71E
F1C71E
F1C71E
F0C71E
F0E71E
F0E71E
F0E71E
F0E71E
F0EE1E
F0EE1E
F0EE1E
F07E1E
F07E1E
F07E1E
F07E1E
F07E1E
F07C1E
F07C1E
F07C1E
F02C1E
F0041E
F0001E
F0001E
F0001E
F0001E
D0001A
800010
ENDCHAR
STARTCHAR 004E
ENCODING 78
SWIDTH 228 0
DWIDTH 21 0
BBX 15 71 3 -1
BITMAP
8010
8812
D81E
F81E
FC1E
FC1E
FC1E
FC1E
FC1E
FC1E
FC1E
FE1E
FE1E
FE1E
FE1E
EE1E
FE1E
FE1E
FE1E
FF1E
FF1E
FF1E
F71E
F71E
F71E
F71E
F71E
F79E
F79E
F79E
F79E
F79E
F79E
F39E
F39E
F3DE
F3DE
F3DE
F3CE
F3CE
F3CE
F1CE
F1CE
F1CE
F1EE
F1EE
F1EE
F0EE
F0EE
F0EE
F0EE
F0EE
F0EE
F07E
F07E
F07E
F07E
F07E
F07E
F07E
F03E
F03E
F03E
F03E
F03E
F03E
F01E
F01E
F01E
901A
8010
ENDCHAR
STARTCHAR 004F
ENCODING 79
SWIDTH 217 0
DWIDTH 20 0
BBX 14 71 3 -1
BITMAP
07C0
1FF0
3FF8
7FF8
787C
F03C
F03C
F03C
F03C
F03C
F03C
F03C
F03C
F03C
F03C
F03C
F03C
F03C
F03C
F03C
F03C
F03C
F03C
F03C
F03C
F03C
F03C
F03C
F03C
F03C
F03C
F03C
F03C
F03C
F03C
F03C
F03C
F03C
F03C
F03C
F03C
F03C
F03C
F03C
F03C
F03C
F03C
F03C
F03C
F03C
F03C
F03C
F03C
F03C
F03C
F03C
F03C
F03C
F03C
F03C
F03C
F03C
F03C
F03C
F03C
F03C
787C
7FF8
3FF8
1FF0
07C0
ENDCHAR
STARTCHAR 0050
ENCODING 80
SWIDTH 217 0
DWIDTH 20 0
BBX 14 71 3 -1
BITMAP
FFC0
FFE0
FFF8
FFF8
F07C
F03C
F03C
F03C
F03C
F03C
F03C
F03C
F03C
F03C
F03C
F03C
F03C
F03C
F03C
F03C
F03C
F03C
F03C
F03C
F03C
F03C
F03C
F03C
F03C
F03C
F03C
F03C
F07C
FFF8
FFF8
FFE0
FFC0
F000
F000
F000
F000
F000
F000
F000
F000
F000
F000
F000
F000
F000
F000
F000
F000
F000
F000
F000
F000
F000
F000
F000
F000
F000
F000
F000
F000
F000
F000
F000
F000
D000
8000
ENDCHAR
STARTCHAR 0051
ENCODING 81
SWIDTH 217 0
DWIDTH 20 0
BBX 14 71 3 -1
BITMAP
07C0
1FE0
3FF8
7FF8
787C
F03C
F03C
F03C
F03C
F03C
F03C
F03C
F03C
F03C
F03C
F03C
F03C
F03C
F03C
F03C
F03C
F03C
F03C
F03C
F03C
F03C
F03C
F03C
F03C
F03C
F03C
F03C
F03C
F03C
F03C
F03C
F03C
F03C
F03C
F03C
F03C
F03C
F03C
F03C
F03C
F03C
F03C
F03C
F03C
F03C
F03C
F03C
F03C
F03C
787C
7FF8
3FF8
1FF0
07C0
0780
0780
0780
0780
0780
0780
0780
0780
07FC
07F0
07F0
07FC
ENDCHAR
STARTCHAR 0052
ENCODING 82
SWIDTH 217 0
DWIDTH 20 0
BBX 15 71 3 -2
BITMAP
FFC0
FFE0
FFF8
FFF8
F07C
F03C
F03C
F03C
F03C
F03C
F03C
F03C
F03C
F03C
F03C
F03C
F03C
F03C
F03C
F03C
F03C
F03C
F03C
F03C
F03C
F03C
F03C
F03C
F03C
F03C
F03C
F03C
F07C
FFF8
FFF8
FFE0
FFE0
F1E0
F1E0
F1E0
F1F0
F1F0
F0F0
F0F0
F0F0
F0F0
F0F0
F0F0
F0F0
F0F8
F0F8
F0F8
F0F8
F078
F078
F078
F078
F07C
F07C
F07C
F07C
F07C
F07C
F07C
F03C
F03C
F03E
F03E
F03E
9036
8020
ENDCHAR
STARTCHAR 0053
ENCODING 83
SWIDTH 217 0
DWIDTH 20 0
BBX 14 71 3 -1
BITMAP
07C0
1FF0
3FF8
7FF8
787C
F03C
F03C
F03C
F03C
F03C
F03C
F03C
F03C
F03C
F03C
F03C
F03C
F03C
F03C
F03C
F03C
F03C
F03C
F03C
F034
F020
F000
F000
F000
F000
F000
F800
7E00
7F00
3F80
1FC0
0FE0
07F0
07F8
03F8
01FC
00FC
003C
003C
003C
803C
D03C
F03C
F03C
F03C
F03C
F03C
F03C
F03C
F03C
F03C
F03C
F03C
F03C
F03C
F03C
F03C
F03C
F03C
F03C
F03C
787C
7FF8
3FF8
1FF0
07C0
ENDCHAR
STARTCHAR 0054
ENCODING 84
SWIDTH 195 0
DWIDTH 18 0
BBX 17 70 1 -1
BITMAP
FFFF80
7FFF00
7FFF00
FFFF80
03C000
03C000
03C000
03C000
03C000
03C000
03C000
03C000
03C000
03C000
03C000
03C000
03C000
03C000
03C000
03C000
03C000
03C000
03C000
03C000
03C000
03C000
03C000
03C000
03C000
03C000
03C000
03C000
03C000
03C000
03C000
03C000
03C000
03C000
03C000
03C000
03C000
03C000
03C000
03C000
03C000
03C000
03C000
03C000
03C000
03C000
03C000
03C000
03C000
03C000
03C000
03C000
03C000
03C000
03C000
03C000
03C000
03C000
03C000
03C000
03C000
03C000
03C000
03C000
03C000
024000
ENDCHAR
STARTCHAR 0055
ENCODING 85
SWIDTH 217 0
DWIDTH 20 0
BBX 14 71 3 -1
BITMAP
8020
9024
F03C
F03C
F03C
F03C
F03C
F03C
F03C
F03C
F03C
F03C
F03C
F03C
F03C
F03C
F03C
F03C
F03C
F03C
F03C
F03C
F03C
F03C
F03C
F03C
F03C
F03C
F03C
F03C
F03C
F03C
F03C
F03C
F03C
F03C
F03C
F03C
F03C
F03C
F03C
F03C
F03C
F03C
F03C
F03C
F03C
F03C
F03C
F03C
F03C
F03C
F03C
F03C
F03C
F03C
F03C
F03C
F03C
F03C
F03C
F03C
F03C
F03C
F03C
F03C
787C
7FF8
3FF8
1FF0
07C0
ENDCHAR
STARTCHAR 0056
ENCODING 86
SWIDTH 217 0
DWIDTH 20 0
BBX 17 71 2 -1
BITMAP
000080
900980
F00F00
F81F00
F81F00
F81F00
F81F00
F81F00
F81F00
F81F00
F81F00
781F00
781F00
781F00
781E00
7C1E00
7C3E00
7C3E00
7C3E00
7C3E00
7C3E00
7C3E00
7C3E00
3C3E00
3C3E00
3C3C00
3C3C00
3C3C00
3E3C00
3E7C00
3E7C00
3E7C00
3E7C00
3E7C00
3E7C00
1E7C00
1E7C00
1E7800
1E7800
1E7800
1F7800
1F7800
1F7800
1F7800
1F7800
1F7800
1F7800
0F7800
0F7800
0F7000
0F7000
0F7000
0F7000
0F7000
0F7000
0F7000
0F7000
0F7000
07F000
07F000
07E000
07E000
07E000
07E000
07E000
07E000
07E000
07E000
07E000
066000
002000
ENDCHAR
STARTCHAR 0057
ENCODING 87
SWIDTH 336 0
DWIDTH 31 0
BBX 27 71 2 -1
BITMAP
00100100
901101A0
F01B01E0
F01F01E0
F81F81E0
F81F81E0
F81F81E0
F81F81E0
F81F81E0
F83F81E0
F83F81E0
783F81E0
783F81C0
783F81C0
783F81C0
783F83C0
783F83C0
783B83C0
7C3B83C0
7C3B83C0
7C3B83C0
7C3B83C0
7C3BC3C0
3C3BC3C0
3C39C380
3C39C380
3C39C380
3C79C380
3C79C380
3C79C380
3C79C780
3E79C780
3E79C780
3E79C780
3E79C780
1E79C780
1E79C700
1E79C700
1E79C700
1E71C700
1E71E700
1E71E700
1E71E700
1E70E700
1F70E700
1F70E700
1F70EF00
0F70EF00
0F70EE00
0F70EE00
0F70EE00
0F70EE00
0F70EE00
0F70EE00
0F70EE00
0F70EE00
0F60EE00
0F606E00
07607E00
07E07E00
07E07C00
07E07C00
07E07C00
07E07C00
07E07C00
07E07C00
07E07C00
07E07C00
07E07C00
06606C00
00200400
ENDCHAR
STARTCHAR 0058
ENCODING 88
SWIDTH 184 0
DWIDTH 17 0
BBX 15 71 1 -1
BITMAP
0400
0422
6C36
7C3E
7C7C
7C7C
3E7C
3E7C
3E7C
3E7C
3E7C
3EF8
3EF8
1FF8
1FF8
1FF8
1FF8
1FF8
1FF0
1FF0
1FF0
0FF0
0FF0
0FF0
0FF0
0FF0
0FE0
0FE0
07E0
07E0
07E0
07E0
07E0
07C0
07C0
07C0
07C0
07C0
07C0
0FE0
0FE0
0FE0
0FE0
0FE0
0FE0
0EE0
1EF0
1EF0
1EF0
1EF0
1EF0
1EF0
1EF0
3EF8
3EF8
3EF8
3EF8
3EF8
3EF8
3EF8
7EF8
7C7C
7C7C
7C7C
7C7C
7C7C
7C7C
FC7C
F83E
C826
8002
ENDCHAR
STARTCHAR 0059
ENCODING 89
SWIDTH 217 0
DWIDTH 20 0
BBX 17 71 2 0
BITMAP
080080
981900
F81F00
F81F00
F81F00
F81F00
F81F00
7C3F00
7C3E00
7C3E00
7C3E00
7C3E00
7C3E00
7C7E00
3E7C00
3E7C00
3E7C00
3E7C00
3E7C00
3E7C00
3EF800
3EF800
1FF800
1FF800
1FF800
1FF800
1FF000
1FF000
1FF000
0FF000
0FF000
0FF000
0FF000
0FE000
0FE000
0FE000
0FE000
07E000
07E000
07C000
07C000
07C000
07C000
07C000
03C000
03C000
03C000
03C000
03C000
03C000
03C000
03C000
03C000
03C000
03C000
03C000
03C000
03C000
03C000
03C000
03C000
03C000
03C000
03C000
03C000
03C000
03C000
03C000
03C000
02C000
004000
ENDCHAR
STARTCHAR 005A
ENCODING 90
SWIDTH 173 0
DWIDTH 16 0
BBX 17 71 0 -1
BITMAP
3FFF80
1FFF80
1FFF00
3FFF00
001F00
001F00
001F00
003F00
003E00
003E00
003E00
003E00
003E00
007E00
007C00
007C00
007C00
007C00
007C00
00FC00
00F800
00F800
00F800
00F800
00F800
01F800
01F000
01F000
01F000
01F000
01F000
03E000
03E000
03E000
03E000
03E000
03E000
07C000
07C000
07C000
07C000
07C000
07C000
0F8000
0F8000
0F8000
0F8000
0F8000
1F8000
1F0000
1F0000
1F0000
1F0000
1F0000
3F0000
3E0000
3E0000
3E0000
3E0000
3E0000
7E0000
7C0000
7C0000
7C0000
7C0000
7C0000
FC0000
FFFF00
FFFE00
FFFE00
FFFF00
ENDCHAR
STARTCHAR 005B
ENCODING 91
SWIDTH 163 0
DWIDTH 15 0
BBX 11 92 3 -18
BITMAP
FFE0
FFC0
FFC0
FFE0
FC00
F000
F000
F000
F000
F000
F000
F000
F000
F000
F000
F000
F000
F000
F000
F000
F000
F000
F000
F000
F000
F000
F000
F000
F000
F000
F000
F000
F000
F000
F000
F000
F000
F000
F000
F000
F000
F000
F000
F000
F000
F000
F000
F000
F000
F000
F000
F000
F000
F000
F000
F000
F000
F000
F000
F000
F000
F000
F000
F000
F000
F000
F000
F000
F000
F000
F000
F000
F000
F000
F000
F000
F000
F000
F000
F000
F000
F000
F000
F000
F000
F000
F000
F000
FFE0
FFC0
FFC0
FFE0
ENDCHAR
STARTCHAR 005C
ENCODING 92
SWIDTH 195 0
DWIDTH 18 0
BBX 17 75 1 0
BITMAP
080000
980000
F80000
F80000
F80000
FC0000
7C0000
7C0000
7C0000
7C0000
7C0000
7C0000
3E0000
3E0000
3E0000
3E0000
3E0000
3E0000
1F0000
1F0000
1F0000
1F0000
1F0000
1F0000
0F8000
0F8000
0F8000
0F8000
0F8000
0F8000
07C000
07C000
07C000
07C000
07C000
07C000
03E000
03E000
03E000
03E000
03E000
03E000
01F000
01F000
01F000
01F000
01F000
01F000
00F800
00F800
00F800
00F800
00F800
00F800
007C00
007C00
007C00
007C00
007C00
007C00
007E00
003E00
003E00
003E00
003E00
003E00
003F00
001F00
001F00
001F00
001F00
001F00
001F80
000980
000080
ENDCHAR
STARTCHAR 005D
ENCODING 93
SWIDTH 173 0
DWIDTH 16 0
BBX 12 92 1 -18
BITMAP
FFF0
3FF0
3FF0
7FF0
00F0
00F0
00F0
00F0
00F0
00F0
00F0
00F0
00F0
00F0
00F0
00F0
00F0
00F0
00F0
00F0
00F0
00F0
00F0
00F0
00F0
00F0
00F0
00F0
00F0
00F0
00F0
00F0
00F0
00F0
00F0
00F0
00F0
00F0
00F0
00F0
00F0
00F0
00F0
00F0
00F0
00F0
00F0
00F0
00F0
00F0
00F0
00F0
00F0
00F0
00F0
00F0
00F0
00F0
00F0
00F0
00F0
00F0
00F0
00F0
00F0
00F0
00F0
00F0
00F0
00F0
00F0
00F0
00F0
00F0
00F0
00F0
00F0
00F0
00F0
00F0
00F0
00F0
00F0
00F0
00F0
00F0
00F0
00F0
FFF0
3FF0
3FF0
7FF0
ENDCHAR
STARTCHAR 005E
ENCODING 94
SWIDTH 217 0
DWIDTH 20 0
BBX 14 11 3 43
BITMAP
0100
0300
0780
0FC0
1FE0
3CF0
7878
F03C
E01C
C00C
8004
ENDCHAR
STARTCHAR 005F
ENCODING 95
SWIDTH 141 0
DWIDTH 13 0
BBX 13 2 0 -8
BITMAP
FFF8
FFF8
ENDCHAR
STARTCHAR 0060
ENCODING 96
SWIDTH 510 0
DWIDTH 47 0
BBX 9 12 18 43
BITMAP
8000
C000
E000
F000
7800
3C00
1E00
0F00
0780
0380
0180
0080
ENDCHAR
STARTCHAR 0061
ENCODING 97
SWIDTH 217 0
DWIDTH 20 0
BBX 14 38 3 -1
BITMAP
0F80
3FE0
7FF0
7FF8
F878
F07C
F03C
F03C
F03C
F03C
F03C
B03C
103C
007C
00FC
01FC
07FC
0FFC
1FFC
3FFC
7FBC
7E3C
FC3C
F83C
F03C
F03C
F03C
F03C
F03C
F03C
F03C
F03C
F03C
F87C
7FFC
7FFC
3FCC
0F84
ENDCHAR
STARTCHAR 0062
ENCODING 98
SWIDTH 217 0
DWIDTH 20 0
BBX 14 75 3 -1
BITMAP
8000
9000
F000
F000
F000
F000
F000
F000
F000
F000
F000
F000
F000
F000
F000
F000
F000
F000
F000
F000
F000
F000
F000
F000
F000
F000
F000
F000
F000
F000
F000
F000
F000
F000
F000
F000
F000
FFC0
FFE0
FFF8
FFF8
F87C
F03C
F03C
F03C
F03C
F03C
F03C
F03C
F03C
F03C
F03C
F03C
F03C
F03C
F03C
F03C
F03C
F03C
F03C
F03C
F03C
F03C
F03C
F03C
F03C
F03C
F03C
F03C
F03C
F87C
FFF8
DFF8
CFF0
87C0
ENDCHAR
STARTCHAR 0063
ENCODING 99
SWIDTH 217 0
DWIDTH 20 0
BBX 14 38 3 -1
BITMAP
07C0
1FF0
3FF8
7FF8
787C
F03C
F03C
F03C
F03C
F03C
F03C
F03C
F034
F020
F000
F000
F000
F000
F000
F000
F000
F000
F000
F024
F034
F03C
F03C
F03C
F03C
F03C
F03C
F03C
F03C
787C
7FF8
3FF8
1FF0
07C0
ENDCHAR
STARTCHAR 0064
ENCODING 100
SWIDTH 217 0
DWIDTH 20 0
BBX 14 75 3 -1
BITMAP
0020
0024
003C
003C
003C
003C
003C
003C
003C
003C
003C
003C
003C
003C
003C
003C
003C
003C
003C
003C
003C
003C
003C
003C
003C
003C
003C
003C
003C
003C
003C
003C
003C
003C
003C
003C
003C
07FC
1FFC
3FFC
7FFC
787C
F03C
F03C
F03C
F03C
F03C
F03C
F03C
F03C
F03C
F03C
F03C
F03C
F03C
F03C
F03C
F03C
F03C
F03C
F03C
F03C
F03C
F03C
F03C
F03C
F03C
F03C
F03C
F03C
787C
7FFC
3FFC
1FE4
0780
ENDCHAR
STARTCHAR 0065
ENCODING 101
SWIDTH 217 0
DWIDTH 20 0
BBX 14 38 3 -1
BITMAP
07C0
1FF0
3FF8
7FF8
787C
F03C
F03C
F03C
F03C
F03C
F03C
F03C
F03C
F03C
F03C
F07C
F1FC
F3FC
FFF0
FFE0
FFC0
FF00
FE00
FC00
F000
F000
F020
F034
F03C
F03C
F03C
F03C
F03C
787C
7FF8
3FF8
1FF0
07C0
ENDCHAR
STARTCHAR 0066
ENCODING 102
SWIDTH 152 0
DWIDTH 14 0
BBX 15 75 0 -1
BITMAP
01F0
03FC
0FFE
0FF0
1F10
1E10
1E00
1E00
1E00
1E00
1E00
1E00
1E00
1E00
1E00
1E00
1E00
1E00
1E00
1E00
1E00
1E00
1E00
1E00
1E00
1E00
1E00
1E00
1E00
1E00
1E00
1E00
1E00
1E00
1E00
1E00
1E00
1FF8
3FF0
7FF0
FFF8
1E00
1E00
1E00
1E00
1E00
1E00
1E00
1E00
1E00
1E00
1E00
1E00
1E00
1E00
1E00
1E00
1E00
1E00
1E00
1E00
1E00
1E00
1E00
1E00
1E00
1E00
1E00
1E00
1E00
1E00
1E00
1E00
1200
0200
ENDCHAR
STARTCHAR 0067
ENCODING 103
SWIDTH 217 0
DWIDTH 20 0
BBX 14 55 3 -18
BITMAP
07C0
1FE4
3FFC
7FFC
787C
F03C
F03C
F03C
F03C
F03C
F03C
F03C
F03C
F03C
F03C
F03C
F03C
F03C
F03C
F03C
F03C
F03C
F03C
F03C
F03C
F03C
F03C
F03C
F03C
F03C
F03C
F03C
F03C
787C
7FFC
3FFC
1FFC
07FC
003C
003C
003C
003C
003C
003C
903C
D03C
F03C
F03C
F03C
F03C
787C
7FF8
3FF8
1FF0
0FC0
ENDCHAR
STARTCHAR 0068
ENCODING 104
SWIDTH 217 0
DWIDTH 20 0
BBX 14 75 3 -1
BITMAP
8000
9000
F000
F000
F000
F000
F000
F000
F000
F000
F000
F000
F000
F000
F000
F000
F000
F000
F000
F000
F000
F000
F000
F000
F000
F000
F000
F000
F000
F000
F000
F000
F000
F000
F000
F000
F000
FFC0
FFE0
FFF8
FFF8
F87C
F03C
F03C
F03C
F03C
F03C
F03C
F03C
F03C
F03C
F03C
F03C
F03C
F03C
F03C
F03C
F03C
F03C
F03C
F03C
F03C
F03C
F03C
F03C
F03C
F03C
F03C
F03C
F03C
F03C
F03C
F03C
D024
8020
ENDCHAR
STARTCHAR 0069
ENCODING 105
SWIDTH 119 0
DWIDTH 11 0
BBX 7 55 2 -1
BITMAP
10
38
7C
FE
7C
38
30
00
00
00
00
00
00
00
00
00
00
08
58
78
78
78
78
78
78
78
78
78
78
78
78
78
78
78
78
78
78
78
78
78
78
78
78
78
78
78
78
78
78
78
78
78
78
48
08
ENDCHAR
STARTCHAR 006A
ENCODING 106
SWIDTH 130 0
DWIDTH 12 0
BBX 12 75 -3 -21
BITMAP
0040
00E0
01E0
03F0
01F0
01E0
00C0
0000
0000
0000
0000
0000
0000
0000
0000
0000
0000
0020
0120
01E0
01E0
01E0
01E0
01E0
01E0
01E0
01E0
01E0
01E0
01E0
01E0
01E0
01E0
01E0
01E0
01E0
01E0
01E0
01E0
01E0
01E0
01E0
01E0
01E0
01E0
01E0
01E0
01E0
01E0
01E0
01E0
01E0
01E0
01E0
01E0
01E0
01E0
01E0
01E0
01E0
01E0
01E0
01E0
01E0
01E0
01E0
01E0
01E0
01E0
01E0
23E0
3FC0
3F80
FF80
3E00
ENDCHAR
STARTCHAR 006B
ENCODING 107
SWIDTH 217 0
DWIDTH 20 0
BBX 14 75 3 -1
BITMAP
8000
9000
F000
F000
F000
F000
F000
F000
F000
F000
F000
F000
F000
F000
F000
F000
F000
F000
F000
F000
F000
F000
F000
F000
F000
F000
F000
F000
F000
F000
F000
F000
F000
F000
F000
F000
F000
F020
F06C
F07C
F07C
F07C
F078
F0F8
F0F8
F0F8
F0F8
F0F0
F0F0
F1F0
F1F0
F1F0
F1E0
FFE0
FFE0
FFF8
FFF8
F07C
F03C
F03C
F03C
F03C
F03C
F03C
F03C
F03C
F03C
F03C
F03C
F03C
F03C
F03C
F03C
D034
8020
ENDCHAR
STARTCHAR 006C
ENCODING 108
SWIDTH 119 0
DWIDTH 11 0
BBX 6 75 3 -1
BITMAP
80
90
F0
F0
F0
F0
F0
F0
F0
F0
F0
F0
F0
F0
F0
F0
F0
F0
F0
F0
F0
F0
F0
F0
F0
F0
F0
F0
F0
F0
F0
F0
F0
F0
F0
F0
F0
F0
F0
F0
F0
F0
F0
F0
F0
F0
F0
F0
F0
F0
F0
F0
F0
F0
F0
F0
F0
F0
F0
F0
F0
F0
F0
F0
F0
F0
F0
F0
F0
F0
F0
78
7C
30
10
ENDCHAR
STARTCHAR 006D
ENCODING 109
SWIDTH 336 0
DWIDTH 31 0
BBX 22 37 4 -1
BITMAP
8F87C0
DFCFF0
FFFFF0
FFFFF8
F8FC7C
F0783C
F0783C
F0783C
F0783C
F0783C
F0783C
F0783C
F0783C
F0783C
F0783C
F0783C
F0783C
F0783C
F0783C
F0783C
F0783C
F0783C
F0783C
F0783C
F0783C
F0783C
F0783C
F0783C
F0783C
F0783C
F0783C
F0783C
F0783C
F0783C
F0783C
F0783C
904824
ENDCHAR
STARTCHAR 006E
ENCODING 110
SWIDTH 217 0
DWIDTH 20 0
BBX 14 38 3 -1
BITMAP
87C0
DFF0
FFF8
FFF8
F87C
F03C
F03C
F03C
F03C
F03C
F03C
F03C
F03C
F03C
F03C
F03C
F03C
F03C
F03C
F03C
F03C
F03C
F03C
F03C
F03C
F03C
F03C
F03C
F03C
F03C
F03C
F03C
F03C
F03C
F03C
F03C
D024
8020
ENDCHAR
STARTCHAR 006F
ENCODING 111
SWIDTH 217 0
DWIDTH 20 0
BBX 14 38 3 -1
BITMAP
07C0
1FF0
3FF8
7FF8
787C
F03C
F03C
F03C
F03C
F03C
F03C
F03C
F03C
F03C
F03C
F03C
F03C
F03C
F03C
F03C
F03C
F03C
F03C
F03C
F03C
F03C
F03C
F03C
F03C
F03C
F03C
F03C
F03C
787C
7FF8
3FF8
1FF0
07C0
ENDCHAR
STARTCHAR 0070
ENCODING 112
SWIDTH 217 0
DWIDTH 20 0
BBX 14 58 3 -21
BITMAP
87C0
DFF0
FFF8
FFF8
F87C
F03C
F03C
F03C
F03C
F03C
F03C
F03C
F03C
F03C
F03C
F03C
F03C
F03C
F03C
F03C
F03C
F03C
F03C
F03C
F03C
F03C
F03C
F03C
F03C
F03C
F03C
F03C
F03C
F87C
FFF8
FFF8
FFE0
FFC0
F000
F000
F000
F000
F000
F000
F000
F000
F000
F000
F000
F000
F000
F000
F000
F000
F000
F000
9000
8000
ENDCHAR
STARTCHAR 0071
ENCODING 113
SWIDTH 217 0
DWIDTH 20 0
BBX 14 58 3 -21
BITMAP
0780
1FE4
3FFC
7FFC
787C
F03C
F03C
F03C
F03C
F03C
F03C
F03C
F03C
F03C
F03C
F03C
F03C
F03C
F03C
F03C
F03C
F03C
F03C
F03C
F03C
F03C
F03C
F03C
F03C
F03C
F03C
F03C
F03C
787C
7FFC
3FFC
1FFC
07FC
003C
003C
003C
003C
003C
003C
003C
003C
003C
003C
003C
003C
003C
003C
003C
003C
003C
003C
0024
0020
ENDCHAR
STARTCHAR 0072
ENCODING 114
SWIDTH 184 0
DWIDTH 17 0
BBX 14 38 3 -1
BITMAP
87C0
DFF0
FFF8
FFF8
F87C
F03C
F03C
F03C
F03C
F03C
F024
F020
F000
F000
F000
F000
F000
F000
F000
F000
F000
F000
F000
F000
F000
F000
F000
F000
F000
F000
F000
F000
F000
F000
F000
F000
D000
8000
ENDCHAR
STARTCHAR 0073
ENCODING 115
SWIDTH 206 0
DWIDTH 19 0
BBX 14 38 3 -1
BITMAP
0F80
3FE0
7FF0
7FF8
F878
F07C
F03C
F03C
F03C
F03C
F03C
F02C
F004
F000
FC00
FE00
7F00
3F80
1FC0
0FE0
07F0
03F8
01F8
00F8
107C
B03C
F03C
F03C
F03C
F03C
F03C
F03C
F07C
F878
7FF8
7FF0
3FE0
0F80
ENDCHAR
STARTCHAR 0074
ENCODING 116
SWIDTH 195 0
DWIDTH 18 0
BBX 16 58 1 -1
BITMAP
2000
3400
3C00
3C00
3C00
3C00
3C00
3C00
3C00
3C00
3C00
3C00
3C00
3C00
3C00
3C00
3C00
3C00
3C00
3C00
3C00
3FFF
3FFE
7FFE
FFFF
3C00
3C00
3C00
3C00
3C00
3C00
3C00
3C00
3C00
3C00
3C00
3C00
3C00
3C00
3C00
3C00
3C00
3C00
3C08
3C0D
3C0F
3C0F
3C0F
3C0F
3C0F
3C0F
3C0F
1E0F
1E1F
1FFF
0FFE
07FC
01F0
ENDCHAR
STARTCHAR 0075
ENCODING 117
SWIDTH 217 0
DWIDTH 20 0
BBX 14 38 3 -1
BITMAP
8020
D034
F03C
F03C
F03C
F03C
F03C
F03C
F03C
F03C
F03C
F03C
F03C
F03C
F03C
F03C
F03C
F03C
F03C
F03C
F03C
F03C
F03C
F03C
F03C
F03C
F03C
F03C
F03C
F03C
F03C
F03C
F03C
787C
7FFC
3FFC
1FE4
0780
ENDCHAR
STARTCHAR 0076
ENCODING 118
SWIDTH 217 0
DWIDTH 20 0
BBX 17 38 2 0
BITMAP
100080
901980
F01F00
F01F00
F01F00
701F00
701F00
783F00
783E00
783E00
783E00
783E00
383E00
387E00
387C00
3C7C00
3C7C00
3C7C00
1C7C00
1C7C00
1CF800
1CF800
1CF800
1CF800
0EF800
0EF800
0EF000
0EF000
0EF000
0EF000
0FF000
07F000
07F000
07E000
07E000
07E000
066000
002000
ENDCHAR
STARTCHAR 0077
ENCODING 119
SWIDTH 336 0
DWIDTH 31 0
BBX 27 38 2 0
BITMAP
08110100
D81B0120
F81F01E0
F81F01E0
F83F01E0
F83F81E0
783F81C0
783F83C0
783F83C0
7C3B83C0
7C3B83C0
7C3B83C0
7C7B83C0
7C7BC380
3C73C380
3C73C380
3C71C380
3C71C380
3C71C780
3CF1C780
3EF1E700
1EF1E700
1EE1E700
1EE1E700
1EE0E700
1EE0E700
1EE0E700
1EE0E600
1EE0F600
0EC0F600
0FC0FE00
0FC0FE00
0FC07E00
0FC07E00
0FC07E00
0FC07C00
04C06400
00004000
ENDCHAR
STARTCHAR 0078
ENCODING 120
SWIDTH 184 0
DWIDTH 17 0
BBX 15 38 1 -3
BITMAP
0800
5812
783E
7C3C
3C3C
3C3C
3C7C
3E78
1E78
1E78
1E70
1EF0
0FF0
0FF0
0FE0
07E0
07E0
07E0
07C0
07C0
07E0
07E0
0FE0
0FE0
0FF0
0F70
1F70
1F70
1F78
1F38
3F38
3E3C
3E3C
3E1C
7C1C
6C1E
4C12
8410
ENDCHAR
STARTCHAR 0079
ENCODING 121
SWIDTH 217 0
DWIDTH 20 0
BBX 17 58 2 -20
BITMAP
080080
D81980
F81F00
F81F00
F81F00
7C1F00
7C1F00
7C1E00
7C1E00
7C3E00
7C3E00
3E3E00
3E3E00
3E3C00
3E3C00
3E3C00
3E3C00
3F7C00
1F7C00
1F7800
1F7800
1F7800
1F7800
1F7800
0F7800
0F7000
0F7000
0F7000
0F7000
0FF000
07E000
07E000
07E000
07E000
07E000
07E000
07C000
07C000
07C000
07C000
07C000
0FC000
0F8000
0F8000
0F8000
0F8000
0F8000
1F0000
1F0000
1F0000
1F0000
1F0000
1F0000
3E0000
3E0000
360000
220000
020000
ENDCHAR
STARTCHAR 007A
ENCODING 122
SWIDTH 184 0
DWIDTH 17 0
BBX 17 38 0 -1
BITMAP
3FFF80
1FFF80
1FFF00
3FFF00
003F00
003E00
003E00
007E00
007C00
007C00
007C00
00F800
00F800
00F800
01F800
01F000
01F000
03F000
03E000
03E000
07E000
07C000
07C000
07C000
0F8000
0F8000
0F8000
1F8000
1F0000
1F0000
3F0000
3E0000
3E0000
7E0000
7FFF00
7FFE00
7FFE00
FFFF00
ENDCHAR
STARTCHAR 007B
ENCODING 123
SWIDTH 163 0
DWIDTH 15 0
BBX 13 92 1 -18
BITMAP
03F8
0FF0
1FF0
1FF8
3FC0
3C00
3C00
3C00
3C00
3C00
3C00
3C00
3C00
3C00
3C00
3C00
3C00
3C00
3C00
3C00
3C00
3C00
3C00
3C00
3C00
3C00
3C00
3C00
3C00
3C00
3C00
3C00
3C00
3C00
3C00
3C00
3C00
3C00
7C00
7800
F800
F000
E000
F000
7800
7800
3C00
3C00
3C00
3C00
3C00
3C00
3C00
3C00
3C00
3C00
3C00
3C00
3C00
3C00
3C00
3C00
3C00
3C00
3C00
3C00
3C00
3C00
3C00
3C00
3C00
3C00
3C00
3C00
3C00
3C00
3C00
3C00
3C00
3C00
3C00
3C00
3C00
3C00
3C00
3C00
3C00
3E00
1FF8
1FF0
0FF0
03F8
ENDCHAR
STARTCHAR 007C
ENCODING 124
SWIDTH 119 0
DWIDTH 11 0
BBX 4 71 3 -1
BITMAP
F0
F0
F0
F0
F0
F0
F0
F0
F0
F0
F0
F0
F0
F0
F0
F0
F0
F0
F0
F0
F0
F0
F0
F0
F0
F0
F0
F0
F0
F0
F0
F0
F0
F0
F0
F0
F0
F0
F0
F0
F0
F0
F0
F0
F0
F0
F0
F0
F0
F0
F0
F0
F0
F0
F0
F0
F0
F0
F0
F0
F0
F0
F0
F0
F0
F0
F0
F0
F0
F0
F0
ENDCHAR
STARTCHAR 007D
ENCODING 125
SWIDTH 163 0
DWIDTH 15 0
BBX 14 92 1 -18
BITMAP
FE00
7F80
7FC0
FFE0
01E0
01E0
00F0
00F0
00F0
00F0
00F0
00F0
00F0
00F0
00F0
00F0
00F0
00F0
00F0
00F0
00F0
00F0
00F0
00F0
00F0
00F0
00F0
00F0
00F0
00F0
00F0
00F0
00F0
00F0
00F0
00F0
00F0
00F0
00F0
00F8
00FC
007C
003C
007C
00F8
00F0
00F0
00F0
00F0
00F0
00F0
00F0
00F0
00F0
00F0
00F0
00F0
00F0
00F0
00F0
00F0
00F0
00F0
00F0
00F0
00F0
00F0
00F0
00F0
00F0
00F0
00F0
00F0
00F0
00F0
00F0
00F0
00F0
00F0
00F0
00F0
00F0
00F0
00F0
00F0
00F0
01F0
01E0
FFE0
7FC0
7F80
FE00
ENDCHAR
STARTCHAR 007E
ENCODING 126
SWIDTH 217 0
DWIDTH 20 0
BBX 14 9 3 43
BITMAP
3800
7E00
FF08
FF98
C7F8
C3FC
81F8
00F8
0070
ENDCHAR
STARTCHAR 00A0
ENCODING 160
SWIDTH 108 0
DWIDTH 10 0
BBX 0 0 0 0
BITMAP
ENDCHAR
STARTCHAR 00A1
ENCODING 161
SWIDTH 119 0
DWIDTH 11 0
BBX 7 71 2 -1
BITMAP
10
38
7C
FE
7C
38
10
00
00
00
00
00
00
00
00
00
48
78
78
78
78
78
78
78
78
78
78
78
78
78
78
78
78
78
78
78
78
78
78
78
78
78
78
78
78
78
78
78
78
78
78
78
78
78
78
78
78
78
78
78
78
78
78
78
78
78
78
78
78
58
08
ENDCHAR
STARTCHAR 00A2
ENCODING 162
SWIDTH 217 0
DWIDTH 20 0
BBX 14 60 3 10
BITMAP
0400
0480
0780
0780
0780
0780
0780
0780
0780
0780
0780
0FE0
3FF0
7FF8
7FFC
F87C
F03C
F03C
F03C
F03C
F03C
F03C
F03C
F034
F020
F000
F000
F000
F000
F000
F000
F000
F000
F020
F024
F03C
F03C
F03C
F03C
F03C
F03C
F03C
F03C
F83C
7FFC
7FF8
3FF0
1FE0
0780
0780
0780
0780
0780
0780
0780
0780
0780
0780
0480
0400
ENDCHAR
STARTCHAR 00A3
ENCODING 163
SWIDTH 228 0
DWIDTH 21 0
BBX 17 71 1 -1
BITMAP
01F800
03FC00
07FE00
0FFF00
1F0F80
1E0780
1E0780
1E0780
1E0780
1E0780
1E0780
1E0780
1E0780
1E0780
1E0780
1E0780
1E0780
1E0780
1E0780
1E0780
1E0780
1E0480
1E0000
1E0000
1E0000
1E0000
1E0000
1E0000
1E0000
1E0000
1E0000
1E0000
1E0000
1E0000
1FFF00
3FFE00
7FFE00
FFFF00
1E0000
1E0000
1E0000
1E0000
1E0000
1E0000
1E0000
1E0000
1E0000
1E0000
1E0000
1E0000
1E0000
1E0000
1E0000
1E0000
1E0000
1E0000
1E0000
1E0480
1E0780
1E0780
1E0780
1E0780
1E0780
1E0780
1E0780
1E0780
1E0780
1FFF80
1FFF80
1FFF80
1FFF80
ENDCHAR
STARTCHAR 00A4
ENCODING 164
SWIDTH 608 0
DWIDTH 56 0
BBX 48 48 4 16
BITMAP
100000000008
38000000001C
7C000000003E
FE000000007F
7F00000000FE
3F80000001FC
1FC01FF803F8
0FE0FFFF07F0
07F3FFFFCFE0
03FFFFFFFFC0
01FFF00FFF80
00FF8001FF00
007F00007E00
007C00003E00
00F800001F00
01F000000F80
01F000000780
03E0000007C0
03C0000003C0
03C0000003C0
07C0000003E0
0780000001E0
0780000001E0
0780000001E0
0780000001E0
0780000001E0
0780000001E0
0780000001E0
03C0000003E0
03C0000003C0
03C0000003C0
01E000000780
01F000000780
00F000000F00
00F800001F00
007C00003E00
007F0000FE00
00FF8001FF00
01FFF00FFF80
03FFFFFFFFC0
07F3FFFF8FE0
0FE0FFFE07F0
1FC01FF003F8
3F80000001FC
7F00000000FE
FE000000007E
7C000000003C
380000000018
ENDCHAR
STARTCHAR 00A5
ENCODING 165
SWIDTH 217 0
DWIDTH 20 0
BBX 17 70 2 0
BITMAP
080080
981900
F81F00
F81F00
F81F00
F81F00
7C1F00
7C3F00
7C3E00
7C3E00
7C3E00
7C3E00
7C3E00
3E3E00
3E7E00
3E7C00
3E7C00
3E7C00
3E7C00
3E7C00
1F7C00
1FFC00
1FF800
1FF800
1FF800
1FF800
1FF800
0FF800
0FF000
0FF000
0FF000
0FF000
0FF000
FFFF80
7FFF00
7FFF00
FFFF80
07E000
07E000
07E000
03E000
03E000
03C000
03C000
03C000
03C000
FFFF80
7FFF00
7FFF00
FFFF80
03C000
03C000
03C000
03C000
03C000
03C000
03C000
03C000
03C000
03C000
03C000
03C000
03C000
03C000
03C000
03C000
03C000
03C000
03C000
024000
ENDCHAR
STARTCHAR 00A6
ENCODING 166
SWIDTH 500 0
DWIDTH 46 0
BBX 4 80 21 -16
BITMAP
F0
F0
F0
F0
F0
F0
F0
F0
F0
F0
F0
F0
F0
F0
F0
F0
F0
F0
F0
F0
F0
F0
F0
F0
F0
F0
F0
F0
F0
F0
F0
F0
F0
F0
00
00
00
00
00
00
00
00
00
00
00
00
F0
F0
F0
F0
F0
F0
F0
F0
F0
F0
F0
F0
F0
F0
F0
F0
F0
F0
F0
F0
F0
F0
F0
F0
F0
F0
F0
F0
F0
F0
F0
F0
F0
F0
ENDCHAR
STARTCHAR 00A7
ENCODING 167
SWIDTH 217 0
DWIDTH 20 0
BBX 14 90 3 -21
BITMAP
07C0
1FF0
3FF8
7FF8
787C
F03C
F03C
F03C
F03C
F03C
F03C
F034
F024
F000
F000
F000
F000
F000
F000
F000
F000
F000
F000
F000
F000
F800
7C00
7E00
3F00
3F80
3FC0
3FE0
7FF0
7BF8
F1FC
F0FC
F03C
F03C
F03C
F03C
F03C
F03C
F03C
F03C
F03C
F03C
F03C
F03C
F03C
F03C
F03C
F03C
F03C
F03C
F03C
F83C
FC3C
7E7C
7FFC
3FF8
1FF0
0FE0
07F0
03F8
01FC
00FC
007C
003C
003C
003C
003C
003C
003C
003C
003C
003C
003C
903C
F03C
F03C
F03C
F03C
F03C
F03C
F03C
787C
7FF8
3FF8
1FF0
0FC0
ENDCHAR
STARTCHAR 00A8
ENCODING 168
SWIDTH 500 0
DWIDTH 46 0
BBX 14 7 16 45
BITMAP
0020
3070
78F8
FDFC
78F8
3070
0030
ENDCHAR
STARTCHAR 00A9
ENCODING 169
SWIDTH 271 0
DWIDTH 25 0
BBX 20 20 3 46
BITMAP
01F800
07FE00
1E0780
3801C0
30F8C0
61FC60
631E60
C60E30
C60030
C60030
C60030
C60030
C60E30
631E60
63FC60
30F8C0
1801C0
1E0780
07FE00
01F800
ENDCHAR
STARTCHAR 00AA
ENCODING 170
SWIDTH 217 0
DWIDTH 20 0
BBX 14 38 3 32
BITMAP
07C0
1FF0
3FF8
7FF8
787C
F03C
F03C
F03C
F03C
F03C
F03C
D03C
803C
003C
00FC
01FC
03FC
07FC
0FFC
1FFC
3FBC
7F3C
7E3C
FC3C
F83C
F03C
F03C
F03C
F03C
F03C
F03C
F03C
F87C
7FFC
7FFC
3FFC
1FE4
0F80
ENDCHAR
STARTCHAR 00AB
ENCODING 171
SWIDTH 271 0
DWIDTH 25 0
BBX 19 30 4 4
BITMAP
000020
008060
008060
0180E0
0381E0
0381E0
0783E0
0F87E0
0F8FE0
1F8FE0
3F9FC0
3F3F80
7E3F80
7E7F00
FCFE00
FC7F00
7E7F80
3F3F80
3F1FC0
1F9FE0
0F8FE0
0F87E0
0783E0
0383E0
0381E0
0180E0
0080E0
008060
000020
000020
ENDCHAR
STARTCHAR 00AC
ENCODING 172
SWIDTH 836 0
DWIDTH 77 0
BBX 54 23 11 16
BITMAP
FFFFFFFFFFFFFC
FFFFFFFFFFFFFC
FFFFFFFFFFFFFC
FFFFFFFFFFFFFC
0000000000003C
0000000000003C
0000000000003C
0000000000003C
0000000000003C
0000000000003C
0000000000003C
0000000000003C
0000000000003C
0000000000003C
0000000000003C
0000000000003C
0000000000003C
0000000000003C
0000000000003C
0000000000003C
0000000000003C
0000000000003C
0000000000003C
ENDCHAR
STARTCHAR 00AD
ENCODING 173
SWIDTH 836 0
DWIDTH 77 0
BBX 54 5 11 25
BITMAP
FFFFFFFFFFFFFC
FFFFFFFFFFFFFC
FFFFFFFFFFFFFC
FFFFFFFFFFFFFC
FFFFFFFFFFFFFC
ENDCHAR
STARTCHAR 00AE
ENCODING 174
SWIDTH 271 0
DWIDTH 25 0
BBX 20 20 3 46
BITMAP
01F800
07FE00
1E0780
3801C0
3000C0
63F860
63FE60
C30630
C30630
C3FE30
C3FC30
C37830
C33830
633C60
631C60
331EC0
1801C0
1E0780
07FE00
01F800
ENDCHAR
STARTCHAR 00AF
ENCODING 175
SWIDTH 500 0
DWIDTH 46 0
BBX 13 5 16 46
BITMAP
FFF8
FFF8
FFF8
FFF8
FFF8
ENDCHAR
STARTCHAR 00B0
ENCODING 176
SWIDTH 228 0
DWIDTH 21 0
BBX 14 33 3 37
BITMAP
07C0
1FE0
3FF8
7FF8
787C
F03C
F03C
F03C
F03C
F03C
F03C
F03C
F03C
F03C
F03C
F03C
F03C
F03C
F03C
F03C
F03C
F03C
F03C
F03C
F03C
F03C
F03C
F03C
787C
7FF8
3FF8
1FF0
07C0
ENDCHAR
STARTCHAR 00B1
ENCODING 177
SWIDTH 836 0
DWIDTH 77 0
BBX 54 51 11 2
BITMAP
00000078000000
00000078000000
00000078000000
00000078000000
00000078000000
00000078000000
00000078000000
00000078000000
00000078000000
00000078000000
00000078000000
00000078000000
00000078000000
00000078000000
00000078000000
00000078000000
FFFFFFFFFFFFFC
FFFFFFFFFFFFFC
FFFFFFFFFFFFFC
FFFFFFFFFFFFFC
00000078000000
00000078000000
00000078000000
00000078000000
00000078000000
00000078000000
00000078000000
00000078000000
00000078000000
00000078000000
00000078000000
00000078000000
00000078000000
00000078000000
00000078000000
00000078000000
00000000000000
00000000000000
00000000000000
00000000000000
00000000000000
00000000000000
00000000000000
00000000000000
00000000000000
00000000000000
00000000000000
FFFFFFFFFFFFFC
FFFFFFFFFFFFFC
FFFFFFFFFFFFFC
FFFFFFFFFFFFFC
ENDCHAR
STARTCHAR 00B2
ENCODING 178
SWIDTH 141 0
DWIDTH 13 0
BBX 9 42 2 28
BITMAP
1E00
7F00
6180
C180
C180
C180
C180
C180
C180
C180
C180
C180
C180
C180
C180
8180
0180
0180
0180
0380
0780
0F00
3E00
7C00
7800
F000
C000
C000
C000
C000
C000
C000
C000
C000
C000
C180
C180
C180
C180
C180
FF80
FF80
ENDCHAR
STARTCHAR 00B3
ENCODING 179
SWIDTH 141 0
DWIDTH 13 0
BBX 9 43 2 27
BITMAP
3E00
7F00
E380
C180
C180
C180
C180
C180
C180
C180
C180
C180
0180
0180
0180
0180
0180
0180
0180
0380
3F00
3E00
0300
0180
0180
0180
0180
0180
C180
C180
C180
C180
C180
C180
C180
C180
C180
C180
C180
C180
E380
7F00
3E00
ENDCHAR
STARTCHAR 00B4
ENCODING 180
SWIDTH 500 0
DWIDTH 46 0
BBX 8 11 21 43
BITMAP
01
03
07
0F
1F
3E
7C
F8
E0
C0
80
ENDCHAR
STARTCHAR 00B5
ENCODING 181
SWIDTH 554 0
DWIDTH 51 0
BBX 51 67 -4 -19
BITMAP
0003F0000007E0
0003F0000007E0
0003F0000007E0
0007F0000007E0
0007E000000FE0
0007E000000FC0
0007E000000FC0
0007E000000FC0
000FE000000FC0
000FC000001FC0
000FC000001F80
000FC000001F80
000FC000001F80
001F8000003F80
001F8000003F00
001F8000003F00
001F8000003F00
003F8000003F00
003F0000007F00
003F0000007E00
003F0000007E00
003F0000007E00
007F0000007E00
007E000000FE00
007E000000FC00
007E000000FC00
007E000000FC00
00FE000001FC00
00FC000001F800
00FC000001F800
00FC000001F800
01FC000003F800
01FC000003F800
01FC000007F000
01FC000007F000
01FC000007F000
03FC00000FF000
03FE00001FF000
03FE00001FE000
03FE00003FE000
03FF00007FE000
07FF8000FFE000
07EFC003FFF000
07EFF00FF7F800
07E7FFFFE7FF00
07E3FFFFC7FF00
0FC1FFFF83FE00
0FC07FFE01FE00
0FC01FF000FE00
0FC00000000000
1FC00000000000
1F800000000000
1F800000000000
1F800000000000
1F800000000000
3F800000000000
3F000000000000
3F000000000000
3F000000000000
3F000000000000
7F000000000000
7E000000000000
7E000000000000
7E000000000000
7E000000000000
FC000000000000
FC000000000000
ENDCHAR
STARTCHAR 00B6
ENCODING 182
SWIDTH 282 0
DWIDTH 26 0
BBX 20 71 3 -1
BITMAP
0FFFF0
1FFFF0
3FFFF0
7FFFF0
7FF8F0
FFF8F0
FFF8F0
FFF8F0
FFF8F0
FFF8F0
FFF8F0
FFF8F0
FFF8F0
FFF8F0
FFF8F0
FFF8F0
FFF8F0
FFF8F0
FFF8F0
FFF8F0
FFF8F0
FFF8F0
FFF8F0
FFF8F0
FFF8F0
FFF8F0
FFF8F0
FFF8F0
FFF8F0
FFF8F0
FFF8F0
FFF8F0
7FF8F0
7FF8F0
3FF8F0
1FF8F0
0FF8F0
0078F0
0078F0
0078F0
0078F0
0078F0
0078F0
0078F0
0078F0
0078F0
0078F0
0078F0
0078F0
0078F0
0078F0
0078F0
0078F0
0078F0
0078F0
0078F0
0078F0
0078F0
0078F0
0078F0
0078F0
0078F0
0078F0
0078F0
0078F0
0078F0
0078F0
0078F0
0078F0
0068D0
004080
ENDCHAR
STARTCHAR 00B7
ENCODING 183
SWIDTH 119 0
DWIDTH 11 0
BBX 7 7 2 22
BITMAP
10
38
7C
FE
7C
38
10
ENDCHAR
STARTCHAR 00B8
ENCODING 184
SWIDTH 500 0
DWIDTH 46 0
BBX 10 18 20 -18
BITMAP
6000
7000
7000
7000
7000
7C00
7F00
7F80
7FC0
07C0
03C0
03C0
03C0
07C0
FFC0
7F80
7F00
FC00
ENDCHAR
STARTCHAR 00B9
ENCODING 185
SWIDTH 130 0
DWIDTH 12 0
BBX 10 41 1 29
BITMAP
0200
0600
0E00
1E00
3E00
7E00
F600
6600
0600
0600
0600
0600
0600
0600
0600
0600
0600
0600
0600
0600
0600
0600
0600
0600
0600
0600
0600
0600
0600
0600
0600
0600
0600
0600
0600
0600
0600
0600
0600
3FC0
3FC0
ENDCHAR
STARTCHAR 00BA
ENCODING 186
SWIDTH 217 0
DWIDTH 20 0
BBX 14 38 3 32
BITMAP
07C0
1FF0
3FF8
7FF8
787C
F03C
F03C
F03C
F03C
F03C
F03C
F03C
F03C
F03C
F03C
F03C
F03C
F03C
F03C
F03C
F03C
F03C
F03C
F03C
F03C
F03C
F03C
F03C
F03C
F03C
F03C
F03C
F87C
7FFC
7FF8
3FF8
1FF0
07C0
ENDCHAR
STARTCHAR 00BB
ENCODING 187
SWIDTH 271 0
DWIDTH 25 0
BBX 19 30 4 4
BITMAP
800000
C02000
C02000
E03000
F03800
F03800
F83C00
FC3E00
FE3E00
FE3F00
7F1F80
3F9F80
3F8FC0
1FC7E0
0FE7E0
1FC7E0
3FCFC0
3F9FC0
7F1F80
FF3F00
FE3E00
FC3E00
FC3C00
F83800
F03800
F03000
E02000
C02000
C00000
800000
ENDCHAR
STARTCHAR 00BC
ENCODING 188
SWIDTH 347 0
DWIDTH 32 0
BBX 30 73 1 0
BITMAP
00000100
00000340
00000380
04000380
0C000380
1C000700
3C000700
7C000700
FC000F00
EC000E00
4C000E00
0C000E00
0C001C00
0C001C00
0C001C00
0C003C00
0C003800
0C003800
0C003800
0C007000
0C007000
0C007000
0C00F000
0C00E000
0C00E000
0C00E000
0C01C000
0C01C000
0C01C000
0C03C000
0C038000
0C038000
0C038200
0C070320
0C0703E0
0C0703E0
0C0F03E0
0C0E07E0
0C0E07E0
0C0E0760
3F9C0760
3F9C0760
001C0760
003C0E60
00380E60
00380E60
00380E60
00700E60
00701E60
00701C60
00F01C60
00E01C60
00E01FFC
00E03FFC
01C00060
01C00060
01C00060
03C00060
03800060
03800060
03800060
07000060
07000060
07000060
0F000060
0E000060
0E000060
0E000060
1C000060
1C000060
1C000060
240003FC
000003FC
ENDCHAR
STARTCHAR 00BD
ENCODING 189
SWIDTH 358 0
DWIDTH 33 0
BBX 29 73 2 0
BITMAP
00000080
000000A0
040001C0
040001C0
0C0001C0
1C0003C0
3C000380
7C000380
FC000780
EC000700
CC000700
0C000700
0C000E00
0C000E00
0C000E00
0C001E00
0C001C00
0C001C00
0C003C00
0C003800
0C003800
0C003800
0C007000
0C007000
0C007000
0C00F000
0C00E000
0C00E000
0C01E000
0C01C000
0C01C000
0C01C000
0C038000
0C0381E0
0C0383F0
0C070618
0C070618
0C070618
0C0F0618
0C0E0618
7F8E0618
7F8E0618
001C0618
001C0618
001C0618
00380618
00380618
00380018
00780018
00700018
00700018
00F00038
00E00070
00E000E0
00E001C0
01C00380
01C00700
01C00600
03C00600
03800600
03800600
07800600
07000600
07000600
07000600
0E000618
0E000618
0E000618
1E000618
1C000618
1C000618
240007F8
000007F8
ENDCHAR
STARTCHAR 00BE
ENCODING 190
SWIDTH 358 0
DWIDTH 33 0
BBX 30 73 2 0
BITMAP
00000100
00000140
3C000380
7E000380
C3000380
C3000780
C3000700
C3000700
C3000F00
C3000E00
C3000E00
C3000E00
C3001C00
03001C00
03001C00
03003C00
03003800
03003800
03003800
03007000
07007000
3E007000
3E00F000
0300E000
0300E000
0301E000
0301C000
0301C000
C301C000
C3038000
C3038000
C3038000
C3078000
C3070310
C30703F0
C30703F0
C30E03F0
C30E03F0
C30E07B0
C31E07B0
7E1C0730
3C1C0730
003C0730
00380F30
00380E30
00380E30
00700E30
00700E30
00700E30
00F01C30
00E01C30
00E01C30
00E01FFC
01C01FFC
01C00030
01C00030
03C00030
03800030
03800030
07800030
07000030
07000030
07000030
0E000030
0E000030
0E000030
1E000030
1C000030
1C000030
1C000030
28000030
080003FC
000003FC
ENDCHAR
STARTCHAR 00BF
ENCODING 191
SWIDTH 217 0
DWIDTH 20 0
BBX 14 71 3 -1
BITMAP
0100
0380
07C0
0FE0
07C0
0380
0300
0000
0000
0000
0000
0000
0000
0000
0000
0000
0240
03C0
03C0
03C0
03C0
03C0
03C0
03C0
03C0
03C0
07C0
0FC0
1F80
3F80
7F00
7E00
FC00
F800
F000
F000
F000
F000
F000
F000
F000
F000
F000
F000
F020
F034
F03C
F03C
F03C
F03C
F03C
F03C
F03C
F03C
F03C
F03C
F03C
F03C
F03C
F03C
F03C
F03C
F03C
F03C
F03C
F03C
787C
7FF8
3FF8
1FF0
07C0
ENDCHAR
STARTCHAR 00C0
ENCODING 192
SWIDTH 217 0
DWIDTH 20 0
BBX 17 87 1 0
BITMAP
080000
0C0000
0E0000
0F0000
078000
03E000
01F000
00F800
007800
003800
001800
000800
000000
000000
000000
000000
000000
002000
022000
036000
03E000
03E000
03E000
07F000
07F000
07F000
07F000
07F000
07F000
07F000
07F000
07F000
07F000
07F000
07F000
0FF800
0F7800
0F7800
0E7800
0E7800
0E7800
0E7800
0E7800
0E7800
0E7800
0E7800
0E7800
1E7C00
1E7C00
1E7C00
1E7C00
1E3C00
1E3C00
1E3C00
1E3C00
1E3C00
1C3C00
1C3C00
1C3C00
3C3E00
3C1E00
3C1E00
3C1E00
3C1E00
3C1E00
3E3E00
3F7E00
3FFE00
3FFE00
3BEE00
79CF00
788F00
780F00
780F00
780F00
780F00
780F00
780F00
780F00
780F00
780F00
780F00
F00780
F00780
F00780
F00780
900480
ENDCHAR
STARTCHAR 00C1
ENCODING 193
SWIDTH 217 0
DWIDTH 20 0
BBX 17 87 1 0
BITMAP
000600
000E00
001E00
003E00
007C00
00F800
01F000
03E000
03C000
038000
030000
020000
000000
000000
000000
000000
000000
002000
022000
036000
03E000
03E000
03E000
07F000
07F000
07F000
07F000
07F000
07F000
07F000
07F000
07F000
07F000
07F000
07F000
0FF800
0F7800
0F7800
0E7800
0E7800
0E7800
0E7800
0E7800
0E7800
0E7800
0E7800
0E7800
1E7C00
1E7C00
1E7C00
1E7C00
1E3C00
1E3C00
1E3C00
1E3C00
1E3C00
1C3C00
1C3C00
1C3C00
3C3E00
3C1E00
3C1E00
3C1E00
3C1E00
3C1E00
3E3E00
3F7E00
3FFE00
3FFE00
3BEE00
79CF00
788F00
780F00
780F00
780F00
780F00
780F00
780F00
780F00
780F00
780F00
780F00
F00780
F00780
F00780
F00780
900480
ENDCHAR
STARTCHAR 00C2
ENCODING 194
SWIDTH 217 0
DWIDTH 20 0
BBX 17 88 1 -1
BITMAP
008000
01C000
03E000
07F000
0F7800
1F3C00
3E1E00
3C1E00
380E00
300600
200200
000000
000000
000000
000000
000000
000000
000000
002000
022000
036000
03E000
03E000
03E000
07F000
07F000
07F000
07F000
07F000
07F000
07F000
07F000
07F000
07F000
07F000
07F000
0FF800
0F7800
0F7800
0E7800
0E7800
0E7800
0E7800
0E7800
0E7800
0E7800
0E7800
0E7800
1E7C00
1E7C00
1E7C00
1E7C00
1E3C00
1E3C00
1E3C00
1E3C00
1E3C00
1C3C00
1C3C00
1C3C00
3C3E00
3C1E00
3C1E00
3C1E00
3C1E00
3C1E00
3E3E00
3F7E00
3FFE00
3FFE00
3BEE00
79CF00
788F00
780F00
780F00
780F00
780F00
780F00
780F00
780F00
780F00
780F00
780F00
F00780
F00780
F00780
F00780
900480
ENDCHAR
STARTCHAR 00C3
ENCODING 195
SWIDTH 217 0
DWIDTH 20 0
BBX 17 85 1 -1
BITMAP
0E0000
1F8000
3FC200
3FC300
31E300
10FF00
207F00
007E00
001C00
000000
000000
000000
000000
000000
000000
002000
022000
036000
03E000
03E000
03E000
07F000
07F000
07F000
07F000
07F000
07F000
07F000
07F000
07F000
07F000
07F000
07F000
0FF800
0F7800
0F7800
0E7800
0E7800
0E7800
0E7800
0E7800
0E7800
0E7800
0E7800
0E7800
1E7C00
1E7C00
1E7C00
1E7C00
1E3C00
1E3C00
1E3C00
1E3C00
1E3C00
1C3C00
1C3C00
1C3C00
3C3E00
3C1E00
3C1E00
3C1E00
3C1E00
3C1E00
3E3E00
3F7E00
3FFE00
3FFE00
3BEE00
79CF00
788F00
780F00
780F00
780F00
780F00
780F00
780F00
780F00
780F00
780F00
780F00
F00780
F00780
F00780
F00780
900480
ENDCHAR
STARTCHAR 00C4
ENCODING 196
SWIDTH 217 0
DWIDTH 20 0
BBX 17 85 1 0
BITMAP
000C00
0C1C00
1E3E00
3F3F00
1E3E00
0C1C00
040C00
000000
000000
000000
000000
000000
000000
000000
000000
002000
022000
036000
03E000
03E000
03E000
07F000
07F000
07F000
07F000
07F000
07F000
07F000
07F000
07F000
07F000
07F000
07F000
0FF800
0F7800
0F7800
0E7800
0E7800
0E7800
0E7800
0E7800
0E7800
0E7800
0E7800
0E7800
1E7C00
1E7C00
1E7C00
1E7C00
1E3C00
1E3C00
1E3C00
1E3C00
1E3C00
1C3C00
1C3C00
1C3C00
3C3E00
3C1E00
3C1E00
3C1E00
3C1E00
3C1E00
3E3E00
3F7E00
3FFE00
3FFE00
3BEE00
79CF00
788F00
780F00
780F00
780F00
780F00
780F00
780F00
780F00
780F00
780F00
780F00
F00780
F00780
F00780
F00780
900480
ENDCHAR
STARTCHAR 00C5
ENCODING 197
SWIDTH 217 0
DWIDTH 20 0
BBX 17 80 2 -1
BITMAP
07E000
0FF000
0C3000
0C1800
0C3800
0C3000
07F000
03C000
000000
002000
066000
07E000
07E000
07E000
07E000
07E000
07E000
07E000
07E000
07E000
07E000
07F000
0FF000
0EF000
0EF000
0EF000
0EF000
0EF000
0EF000
0EF000
0EF000
0EF000
0EF800
0EF800
1EF800
1EF800
1EF800
1EF800
1E7800
1E7800
1C7800
1C7800
1C7800
1C7800
1C7C00
3C7C00
3C7C00
3C3C00
3C3C00
3C3C00
3C3C00
3C3C00
3C3C00
3C3C00
3C3C00
3C3C00
3C1E00
7C3E00
7E7E00
7FFE00
7FFE00
7BFE00
799E00
781E00
781E00
781E00
780E00
780E00
780F00
F80F00
F80F00
F80F00
F80F00
F80F00
F80F00
F00F00
F00F00
F00F00
900D00
000080
ENDCHAR
STARTCHAR 00C6
ENCODING 198
SWIDTH 315 0
DWIDTH 29 0
BBX 25 71 1 -2
BITMAP
001FFF80
001FFF00
001FFF00
003FFF80
003F8000
003F8000
003F8000
003F8000
003F8000
007F8000
007F8000
007F8000
006F8000
00678000
00678000
00678000
00E78000
00E78000
00E78000
00E78000
00E78000
00E78000
01E78000
01E78000
01E78000
01E78000
01E78000
01C78000
01C78000
03C78000
03C78000
03C78000
03C78000
03C7FF80
03C7FF00
07C7FF00
07C7FF80
07C78000
07C78000
07878000
07878000
07878000
0F878000
0F878000
0F878000
0F878000
0F878000
0F878000
1F878000
1FCF8000
1FFF8000
1FFF8000
1FFF8000
1F778000
1F078000
3E078000
3E078000
3E078000
3E078000
3E078000
3E078000
7E078000
7C078000
7C078000
7C078000
7C078000
7C078000
7C07FF80
F807FF00
C807FF00
8007FF80
ENDCHAR
STARTCHAR 00C7
ENCODING 199
SWIDTH 217 0
DWIDTH 20 0
BBX 15 88 3 -18
BITMAP
07C0
1FF0
3FF8
7FF8
787C
F03C
F03C
F03C
F03C
F03C
F03C
F03C
F03C
F03C
F03C
F03C
F03C
F03C
F03C
F03C
F03C
F034
F020
F000
F000
F000
F000
F000
F000
F000
F000
F000
F000
F000
F000
F000
F000
F000
F000
F000
F000
F000
F000
F000
F000
F020
F034
F03C
F03C
F03C
F03C
F03C
F03C
F03C
F03C
F03C
F03C
F03C
F03C
F03C
F03C
F03C
F03C
F03C
F03C
F87C
7FFC
7FF8
3FF0
1FE0
0780
0700
0700
0700
0700
07E0
07F8
07FC
07FE
003E
001E
001E
001E
003E
0FFC
07F8
07F0
0FC0
ENDCHAR
STARTCHAR 00C8
ENCODING 200
SWIDTH 195 0
DWIDTH 18 0
BBX 13 88 3 0
BITMAP
2000
3000
3800
3C00
1E00
0F80
07C0
03E0
01E0
00E0
0060
0020
0000
0000
0000
0000
0000
FFF8
FFF0
FFF0
FFF8
F000
F000
F000
F000
F000
F000
F000
F000
F000
F000
F000
F000
F000
F000
F000
F000
F000
F000
F000
F000
F000
F000
F000
F000
F000
F000
F000
F000
F000
FFF8
FFF0
FFF0
FFF8
F000
F000
F000
F000
F000
F000
F000
F000
F000
F000
F000
F000
F000
F000
F000
F000
F000
F000
F000
F000
F000
F000
F000
F000
F000
F000
F000
F000
F000
F000
FFF8
FFF0
FFF0
FFF8
ENDCHAR
STARTCHAR 00C9
ENCODING 201
SWIDTH 195 0
DWIDTH 18 0
BBX 13 88 3 0
BITMAP
0018
0038
0078
00F8
01F0
03E0
07C0
0F80
0F00
0E00
0C00
0800
0000
0000
0000
0000
0000
FFF8
FFF0
FFF0
FFF8
F000
F000
F000
F000
F000
F000
F000
F000
F000
F000
F000
F000
F000
F000
F000
F000
F000
F000
F000
F000
F000
F000
F000
F000
F000
F000
F000
F000
F000
FFF8
FFF0
FFF0
FFF8
F000
F000
F000
F000
F000
F000
F000
F000
F000
F000
F000
F000
F000
F000
F000
F000
F000
F000
F000
F000
F000
F000
F000
F000
F000
F000
F000
F000
F000
F000
FFF8
FFF0
FFF0
FFF8
ENDCHAR
STARTCHAR 00CA
ENCODING 202
SWIDTH 195 0
DWIDTH 18 0
BBX 13 89 3 -1
BITMAP
0200
0700
0F80
1FC0
3DE0
7CF0
F878
F078
E038
C018
8008
0000
0000
0000
0000
0000
0000
0000
FFF8
FFF0
FFF0
FFF8
F000
F000
F000
F000
F000
F000
F000
F000
F000
F000
F000
F000
F000
F000
F000
F000
F000
F000
F000
F000
F000
F000
F000
F000
F000
F000
F000
F000
F000
FFF8
FFF0
FFF0
FFF8
F000
F000
F000
F000
F000
F000
F000
F000
F000
F000
F000
F000
F000
F000
F000
F000
F000
F000
F000
F000
F000
F000
F000
F000
F000
F000
F000
F000
F000
F000
FFF8
FFF0
FFF0
FFF8
ENDCHAR
STARTCHAR 00CB
ENCODING 203
SWIDTH 195 0
DWIDTH 18 0
BBX 14 86 3 0
BITMAP
0030
3070
78F8
FCFC
78F8
3070
1030
0000
0000
0000
0000
0000
0000
0000
0000
FFF8
FFF0
FFF0
FFF8
F000
F000
F000
F000
F000
F000
F000
F000
F000
F000
F000
F000
F000
F000
F000
F000
F000
F000
F000
F000
F000
F000
F000
F000
F000
F000
F000
F000
F000
FFF8
FFF0
FFF0
FFF8
F000
F000
F000
F000
F000
F000
F000
F000
F000
F000
F000
F000
F000
F000
F000
F000
F000
F000
F000
F000
F000
F000
F000
F000
F000
F000
F000
F000
F000
F000
FFF8
FFF0
FFF0
FFF8
ENDCHAR
STARTCHAR 00CC
ENCODING 204
SWIDTH 119 0
DWIDTH 11 0
BBX 9 87 0 0
BITMAP
8000
C000
E000
F000
7800
3E00
1F00
0F80
0780
0380
0180
0080
0000
0000
0000
0000
0000
0000
1200
1E00
1E00
1E00
1E00
1E00
1E00
1E00
1E00
1E00
1E00
1E00
1E00
1E00
1E00
1E00
1E00
1E00
1E00
1E00
1E00
1E00
1E00
1E00
1E00
1E00
1E00
1E00
1E00
1E00
1E00
1E00
1E00
1E00
1E00
1E00
1E00
1E00
1E00
1E00
1E00
1E00
1E00
1E00
1E00
1E00
1E00
1E00
1E00
1E00
1E00
1E00
1E00
1E00
1E00
1E00
1E00
1E00
1E00
1E00
1E00
1E00
1E00
1E00
1E00
1E00
1E00
1E00
1200
ENDCHAR
STARTCHAR 00CD
ENCODING 205
SWIDTH 119 0
DWIDTH 11 0
BBX 9 87 2 0
BITMAP
0180
0380
0780
0F80
1F00
3E00
7C00
F800
F000
E000
C000
8000
0000
0000
0000
0000
0000
0000
4800
7800
7800
7800
7800
7800
7800
7800
7800
7800
7800
7800
7800
7800
7800
7800
7800
7800
7800
7800
7800
7800
7800
7800
7800
7800
7800
7800
7800
7800
7800
7800
7800
7800
7800
7800
7800
7800
7800
7800
7800
7800
7800
7800
7800
7800
7800
7800
7800
7800
7800
7800
7800
7800
7800
7800
7800
7800
7800
7800
7800
7800
7800
7800
7800
7800
7800
7800
4800
ENDCHAR
STARTCHAR 00CE
ENCODING 206
SWIDTH 119 0
DWIDTH 11 0
BBX 13 88 -2 -1
BITMAP
0200
0700
0F80
1FC0
3DE0
7CF0
F878
F078
E038
C018
8008
0000
0000
0000
0000
0000
0000
0000
0000
0480
0780
0780
0780
0780
0780
0780
0780
0780
0780
0780
0780
0780
0780
0780
0780
0780
0780
0780
0780
0780
0780
0780
0780
0780
0780
0780
0780
0780
0780
0780
0780
0780
0780
0780
0780
0780
0780
0780
0780
0780
0780
0780
0780
0780
0780
0780
0780
0780
0780
0780
0780
0780
0780
0780
0780
0780
0780
0780
0780
0780
0780
0780
0780
0780
0780
0780
0780
0480
ENDCHAR
STARTCHAR 00CF
ENCODING 207
SWIDTH 119 0
DWIDTH 11 0
BBX 14 85 -2 0
BITMAP
0030
3070
78F8
FCFC
78F8
3070
1030
0000
0000
0000
0000
0000
0000
0000
0000
0000
0480
0780
0780
0780
0780
0780
0780
0780
0780
0780
0780
0780
0780
0780
0780
0780
0780
0780
0780
0780
0780
0780
0780
0780
0780
0780
0780
0780
0780
0780
0780
0780
0780
0780
0780
0780
0780
0780
0780
0780
0780
0780
0780
0780
0780
0780
0780
0780
0780
0780
0780
0780
0780
0780
0780
0780
0780
0780
0780
0780
0780
0780
0780
0780
0780
0780
0780
0780
0480
ENDCHAR
STARTCHAR 00D0
ENCODING 208
SWIDTH 228 0
DWIDTH 21 0
BBX 17 71 1 -1
BITMAP
1FF800
1FFC00
1FFE00
1FFF00
1E0F80
1E0780
1E0780
1E0780
1E0780
1E0780
1E0780
1E0780
1E0780
1E0780
1E0780
1E0780
1E0780
1E0780
1E0780
1E0780
1E0780
1E0780
1E0780
1E0780
1E0780
1E0780
1E0780
1E0780
1E0780
1E0780
1E0780
1E0780
1E0780
FFE780
FFE780
FFE780
FFE780
1E0780
1E0780
1E0780
1E0780
1E0780
1E0780
1E0780
1E0780
1E0780
1E0780
1E0780
1E0780
1E0780
1E0780
1E0780
1E0780
1E0780
1E0780
1E0780
1E0780
1E0780
1E0780
1E0780
1E0780
1E0780
1E0780
1E0780
1E0780
1E0780
1E0F80
1FFF00
1FFE00
1FFC00
1FF800
ENDCHAR
STARTCHAR 00D1
ENCODING 209
SWIDTH 228 0
DWIDTH 21 0
BBX 15 86 3 -1
BITMAP
1C00
3F00
7F84
7F86
63C6
21FE
40FE
00FC
0038
0000
0000
0000
0000
0000
0000
0800
8812
D81E
F81E
F81E
F81E
FC1E
FC1E
FC1E
FC1E
FC1E
FC1E
FC1E
FE1E
FE1E
EE1E
EE1E
EE1E
EE1E
EE1E
EE1E
EF1E
EF1E
FF1E
F71E
F71E
F71E
F71E
F79E
F79E
F79E
F79E
F79E
F79E
F79E
F79E
F39E
F3DE
F3DE
F3DE
F3DE
F3DE
F3DE
F1CE
F1CE
F1CE
F1EE
F1EE
F1EE
F0EE
F0EE
F0EE
F0EE
F0EE
F0FE
F07E
F07E
F07E
F07E
F07E
F07E
F03E
F03E
F03E
F03E
F03E
F03E
F01E
F01E
9012
0010
ENDCHAR
STARTCHAR 00D2
ENCODING 210
SWIDTH 217 0
DWIDTH 20 0
BBX 14 88 3 0
BITMAP
2000
3000
3800
3C00
1E00
0F80
07C0
03E0
01E0
00E0
0060
0020
0000
0000
0000
0000
0000
0FC0
1FE0
3FF0
7FF8
F87C
F03C
F03C
F03C
F03C
F03C
F03C
F03C
F03C
F03C
F03C
F03C
F03C
F03C
F03C
F03C
F03C
F03C
F03C
F03C
F03C
F03C
F03C
F03C
F03C
F03C
F03C
F03C
F03C
F03C
F03C
F03C
F03C
F03C
F03C
F03C
F03C
F03C
F03C
F03C
F03C
F03C
F03C
F03C
F03C
F03C
F03C
F03C
F03C
F03C
F03C
F03C
F03C
F03C
F03C
F03C
F03C
F03C
F03C
F03C
F03C
F03C
F87C
7FF8
3FF0
1FE0
0FC0
ENDCHAR
STARTCHAR 00D3
ENCODING 211
SWIDTH 217 0
DWIDTH 20 0
BBX 14 88 3 0
BITMAP
0018
0038
0078
00F8
01F0
03E0
07C0
0F80
0F00
0E00
0C00
0800
0000
0000
0000
0000
0000
0FC0
1FE0
3FF0
7FF8
F87C
F03C
F03C
F03C
F03C
F03C
F03C
F03C
F03C
F03C
F03C
F03C
F03C
F03C
F03C
F03C
F03C
F03C
F03C
F03C
F03C
F03C
F03C
F03C
F03C
F03C
F03C
F03C
F03C
F03C
F03C
F03C
F03C
F03C
F03C
F03C
F03C
F03C
F03C
F03C
F03C
F03C
F03C
F03C
F03C
F03C
F03C
F03C
F03C
F03C
F03C
F03C
F03C
F03C
F03C
F03C
F03C
F03C
F03C
F03C
F03C
F03C
F87C
7FF8
3FF0
1FE0
0FC0
ENDCHAR
STARTCHAR 00D4
ENCODING 212
SWIDTH 217 0
DWIDTH 20 0
BBX 14 89 3 -1
BITMAP
0200
0700
0F80
1FC0
3DE0
7CF0
F878
F078
E038
C018
8008
0000
0000
0000
0000
0000
0000
0000
0FC0
1FE0
3FF0
7FF8
F87C
F03C
F03C
F03C
F03C
F03C
F03C
F03C
F03C
F03C
F03C
F03C
F03C
F03C
F03C
F03C
F03C
F03C
F03C
F03C
F03C
F03C
F03C
F03C
F03C
F03C
F03C
F03C
F03C
F03C
F03C
F03C
F03C
F03C
F03C
F03C
F03C
F03C
F03C
F03C
F03C
F03C
F03C
F03C
F03C
F03C
F03C
F03C
F03C
F03C
F03C
F03C
F03C
F03C
F03C
F03C
F03C
F03C
F03C
F03C
F03C
F03C
F87C
7FF8
3FF0
1FE0
0FC0
ENDCHAR
STARTCHAR 00D5
ENCODING 213
SWIDTH 217 0
DWIDTH 20 0
BBX 14 86 3 -1
BITMAP
3800
7E00
FF08
FF0C
C78C
43FC
81FC
01F8
0070
0000
0000
0000
0000
0000
0000
0FC0
1FE0
3FF0
7FF8
F87C
F03C
F03C
F03C
F03C
F03C
F03C
F03C
F03C
F03C
F03C
F03C
F03C
F03C
F03C
F03C
F03C
F03C
F03C
F03C
F03C
F03C
F03C
F03C
F03C
F03C
F03C
F03C
F03C
F03C
F03C
F03C
F03C
F03C
F03C
F03C
F03C
F03C
F03C
F03C
F03C
F03C
F03C
F03C
F03C
F03C
F03C
F03C
F03C
F03C
F03C
F03C
F03C
F03C
F03C
F03C
F03C
F03C
F03C
F03C
F03C
F03C
F87C
7FF8
3FF0
1FE0
0FC0
ENDCHAR
STARTCHAR 00D6
ENCODING 214
SWIDTH 217 0
DWIDTH 20 0
BBX 14 86 3 0
BITMAP
0030
3070
78F8
FCFC
78F8
3070
1030
0000
0000
0000
0000
0000
0000
0000
0000
0FC0
1FE0
3FF0
7FF8
F87C
F03C
F03C
F03C
F03C
F03C
F03C
F03C
F03C
F03C
F03C
F03C
F03C
F03C
F03C
F03C
F03C
F03C
F03C
F03C
F03C
F03C
F03C
F03C
F03C
F03C
F03C
F03C
F03C
F03C
F03C
F03C
F03C
F03C
F03C
F03C
F03C
F03C
F03C
F03C
F03C
F03C
F03C
F03C
F03C
F03C
F03C
F03C
F03C
F03C
F03C
F03C
F03C
F03C
F03C
F03C
F03C
F03C
F03C
F03C
F03C
F03C
F87C
7FF8
3FF0
1FE0
0FC0
ENDCHAR
STARTCHAR 00D7
ENCODING 215
SWIDTH 836 0
DWIDTH 77 0
BBX 51 49 13 4
BITMAP
18000000000300
3C000000000780
7E000000000FC0
7F000000001FC0
3F800000003F80
1FC00000007F00
0FE0000000FE00
07F0000001FC00
03F8000003F800
01FC000007F000
00FE00000FE000
007F00001FC000
003F80007F8000
001FC000FF0000
000FE001FE0000
0007F003FC0000
0003F807F80000
0001FC0FF00000
0000FE1FE00000
00007F3FC00000
00003FFF800000
00001FFF000000
00000FFE000000
000007FC000000
000007FC000000
00000FFE000000
00001FFF000000
00003FFF800000
00007F3FC00000
0000FE1FE00000
0001FC0FF00000
0003F807F80000
0007F003FC0000
000FE001FE0000
001FC000FF0000
003F80007F8000
007F00003FC000
00FE00001FE000
01FC000007F000
03F8000003F800
07F0000001FC00
0FE0000000FE00
1FC00000007F00
3F800000003F80
7F000000001FC0
FE000000000FE0
7C0000000007C0
38000000000380
10000000000100
ENDCHAR
STARTCHAR 00D8
ENCODING 216
SWIDTH 217 0
DWIDTH 20 0
BBX 18 71 1 0
BITMAP
01F040
07FC80
0FFE80
0FFE80
1F0F80
1E0F00
1E0F00
1E0F00
1E0F00
1E0F00
1E0F00
1E0F00
1E0F00
1E0F00
1E0F00
1E0F00
1E1F00
1E1F00
1E1F00
1E1F00
1E3F00
1E3F00
1E3F00
1E3F00
1E3F00
1E6F00
1E6F00
1E6F00
1E6F00
1E6F00
1ECF00
1ECF00
1ECF00
1ECF00
1FCF00
1F8F00
1F8F00
1F8F00
1F8F00
1F0F00
1F0F00
1F0F00
1F0F00
1F0F00
1E0F00
1E0F00
1E0F00
1E0F00
1E0F00
1E0F00
1E0F00
1E0F00
1E0F00
1E0F00
1E0F00
1E0F00
1E0F00
3E0F00
3E0F00
3E0F00
3E0F00
3E0F00
7E0F00
7E0F00
7E0F00
7E0F00
7F1E00
CFFE00
CFFC00
C7F800
C1F000
ENDCHAR
STARTCHAR 00D9
ENCODING 217
SWIDTH 217 0
DWIDTH 20 0
BBX 14 88 3 0
BITMAP
2000
3000
3800
3C00
1E00
0F80
07C0
03E0
01E0
00E0
0060
0020
0000
0000
0000
0000
0000
0000
9024
F03C
F03C
F03C
F03C
F03C
F03C
F03C
F03C
F03C
F03C
F03C
F03C
F03C
F03C
F03C
F03C
F03C
F03C
F03C
F03C
F03C
F03C
F03C
F03C
F03C
F03C
F03C
F03C
F03C
F03C
F03C
F03C
F03C
F03C
F03C
F03C
F03C
F03C
F03C
F03C
F03C
F03C
F03C
F03C
F03C
F03C
F03C
F03C
F03C
F03C
F03C
F03C
F03C
F03C
F03C
F03C
F03C
F03C
F03C
F03C
F03C
F03C
F03C
F03C
F87C
7FF8
3FF0
1FE0
0FC0
ENDCHAR
STARTCHAR 00DA
ENCODING 218
SWIDTH 217 0
DWIDTH 20 0
BBX 14 88 3 0
BITMAP
0018
0038
0078
00F8
01F0
03E0
07C0
0F80
0F00
0E00
0C00
0800
0000
0000
0000
0000
0000
0000
9024
F03C
F03C
F03C
F03C
F03C
F03C
F03C
F03C
F03C
F03C
F03C
F03C
F03C
F03C
F03C
F03C
F03C
F03C
F03C
F03C
F03C
F03C
F03C
F03C
F03C
F03C
F03C
F03C
F03C
F03C
F03C
F03C
F03C
F03C
F03C
F03C
F03C
F03C
F03C
F03C
F03C
F03C
F03C
F03C
F03C
F03C
F03C
F03C
F03C
F03C
F03C
F03C
F03C
F03C
F03C
F03C
F03C
F03C
F03C
F03C
F03C
F03C
F03C
F03C
F87C
7FF8
3FF0
1FE0
0FC0
ENDCHAR
STARTCHAR 00DB
ENCODING 219
SWIDTH 217 0
DWIDTH 20 0
BBX 14 89 3 -1
BITMAP
0200
0700
0F80
1FC0
3DE0
7CF0
F878
F078
E038
C018
8008
0000
0000
0000
0000
0000
0000
0000
0000
9024
F03C
F03C
F03C
F03C
F03C
F03C
F03C
F03C
F03C
F03C
F03C
F03C
F03C
F03C
F03C
F03C
F03C
F03C
F03C
F03C
F03C
F03C
F03C
F03C
F03C
F03C
F03C
F03C
F03C
F03C
F03C
F03C
F03C
F03C
F03C
F03C
F03C
F03C
F03C
F03C
F03C
F03C
F03C
F03C
F03C
F03C
F03C
F03C
F03C
F03C
F03C
F03C
F03C
F03C
F03C
F03C
F03C
F03C
F03C
F03C
F03C
F03C
F03C
F03C
F87C
7FF8
3FF0
1FE0
0FC0
ENDCHAR
STARTCHAR 00DC
ENCODING 220
SWIDTH 217 0
DWIDTH 20 0
BBX 14 86 3 0
BITMAP
0030
3070
78F8
FCFC
78F8
3070
1030
0000
0000
0000
0000
0000
0000
0000
0000
0000
9024
F03C
F03C
F03C
F03C
F03C
F03C
F03C
F03C
F03C
F03C
F03C
F03C
F03C
F03C
F03C
F03C
F03C
F03C
F03C
F03C
F03C
F03C
F03C
F03C
F03C
F03C
F03C
F03C
F03C
F03C
F03C
F03C
F03C
F03C
F03C
F03C
F03C
F03C
F03C
F03C
F03C
F03C
F03C
F03C
F03C
F03C
F03C
F03C
F03C
F03C
F03C
F03C
F03C
F03C
F03C
F03C
F03C
F03C
F03C
F03C
F03C
F03C
F03C
F03C
F87C
7FF8
3FF0
1FE0
0FC0
ENDCHAR
STARTCHAR 00DD
ENCODING 221
SWIDTH 217 0
DWIDTH 20 0
BBX 17 87 1 0
BITMAP
000600
000E00
001E00
003E00
007C00
00F800
01F000
03E000
03C000
038000
030000
020000
000000
000000
000000
000000
000000
800800
C80980
F80F80
FC1F80
7C1F00
7C1F00
7C1F00
7C1F00
7C1F00
7C1F00
7C3E00
3E3E00
3E3E00
3E3E00
3E3E00
3E3E00
3E7E00
3E7C00
3F7C00
1F7C00
1F7C00
1F7C00
1FFC00
1FF800
1FF800
1FF800
0FF800
0FF800
0FF800
0FF000
0FF000
0FF000
0FF000
07F000
07F000
07F000
07E000
07E000
07E000
07E000
07E000
03E000
03C000
03C000
03C000
03C000
03C000
03C000
03C000
03C000
03C000
03C000
03C000
03C000
03C000
03C000
03C000
03C000
03C000
03C000
03C000
03C000
03C000
03C000
03C000
03C000
03C000
03C000
03C000
024000
ENDCHAR
STARTCHAR 00DE
ENCODING 222
SWIDTH 217 0
DWIDTH 20 0
BBX 14 71 3 -1
BITMAP
8000
9000
F000
F000
F000
F000
F000
F000
F000
F000
F000
F000
F000
F000
F000
F000
FFC0
FFE0
FFF0
FFF8
F07C
F03C
F03C
F03C
F03C
F03C
F03C
F03C
F03C
F03C
F03C
F03C
F03C
F03C
F03C
F03C
F03C
F03C
F03C
F03C
F03C
F03C
F03C
F03C
F03C
F03C
F03C
F03C
F07C
FFF8
FFF8
FFE0
FFC0
F000
F000
F000
F000
F000
F000
F000
F000
F000
F000
F000
F000
F000
F000
F000
F000
D000
8000
ENDCHAR
STARTCHAR 00DF
ENCODING 223
SWIDTH 228 0
DWIDTH 21 0
BBX 16 92 2 -18
BITMAP
03F0
07F8
0FFC
1FF0
3E10
3C00
3C00
3C00
3C00
3C00
3C00
3C00
3C00
3C00
3C00
3C00
3C00
3C00
3C00
3C00
3C00
3C00
3C00
3C00
3C00
3C00
3C00
3C00
3C00
3C00
3C00
3C00
3C00
3C00
3C00
3C00
3DE0
3FF8
3FFC
7FFE
FE1F
FC0F
3C0F
3C0F
3C0F
3C0F
3C0F
3C0F
3C0F
3C0F
3C0F
3C0F
3C1F
3C7E
3C7E
3C78
3C7C
3C7E
3C1E
3C0F
3C0F
3C0F
3C0F
3C0F
3C0F
3C0F
3C0F
3C0F
3C0F
3C0F
3C0F
3C0F
3C0F
240F
000F
000F
000F
000F
000F
000F
000F
000F
000F
000F
000F
000F
000F
003F
003E
001E
0038
0020
ENDCHAR
STARTCHAR 00E0
ENCODING 224
SWIDTH 217 0
DWIDTH 20 0
BBX 14 55 2 0
BITMAP
1000
1800
1C00
1E00
0F00
07C0
03E0
01F0
00F0
0070
0030
0010
0000
0000
0000
0000
0000
0FC0
1FE0
3FF0
7FF8
F87C
F03C
F03C
F03C
F03C
F03C
F03C
903C
903C
007C
00FC
01FC
03FC
07FC
0FFC
1FFC
3FBC
7F3C
7E3C
F83C
F83C
F03C
F03C
F03C
F03C
F03C
F03C
F03C
F03C
F87C
7FFC
3FFC
1FE4
0F80
ENDCHAR
STARTCHAR 00E1
ENCODING 225
SWIDTH 217 0
DWIDTH 20 0
BBX 14 55 2 0
BITMAP
000C
001C
003C
007C
00F8
01F0
03E0
07C0
0780
0700
0600
0400
0000
0000
0000
0000
0000
0FC0
1FE0
3FF0
7FF8
F87C
F03C
F03C
F03C
F03C
F03C
F03C
903C
903C
007C
00FC
01FC
03FC
07FC
0FFC
1FFC
3FBC
7F3C
7E3C
F83C
F83C
F03C
F03C
F03C
F03C
F03C
F03C
F03C
F03C
F87C
7FFC
3FFC
1FE4
0F80
ENDCHAR
STARTCHAR 00E2
ENCODING 226
SWIDTH 217 0
DWIDTH 20 0
BBX 14 56 2 -1
BITMAP
0100
0380
07C0
0FE0
1EF0
3E78
7C3C
783C
701C
600C
4004
0000
0000
0000
0000
0000
0000
0000
0FC0
1FE0
3FF0
7FF8
F87C
F03C
F03C
F03C
F03C
F03C
F03C
903C
903C
007C
00FC
01FC
03FC
07FC
0FFC
1FFC
3FBC
7F3C
7E3C
F83C
F83C
F03C
F03C
F03C
F03C
F03C
F03C
F03C
F03C
F87C
7FFC
3FFC
1FE4
0F80
ENDCHAR
STARTCHAR 00E3
ENCODING 227
SWIDTH 217 0
DWIDTH 20 0
BBX 15 53 2 -1
BITMAP
1C00
3F00
7F84
7F86
63C6
21FE
40FE
00FC
0038
0000
0000
0000
0000
0000
0000
0FC0
1FE0
3FF0
7FF8
F87C
F03C
F03C
F03C
F03C
F03C
F03C
903C
903C
007C
00FC
01FC
03FC
07FC
0FFC
1FFC
3FBC
7F3C
7E3C
F83C
F83C
F03C
F03C
F03C
F03C
F03C
F03C
F03C
F03C
F87C
7FFC
3FFC
1FE4
0F80
ENDCHAR
STARTCHAR 00E4
ENCODING 228
SWIDTH 217 0
DWIDTH 20 0
BBX 15 53 2 0
BITMAP
0018
1838
3C7C
7E7E
3C7C
1838
0818
0000
0000
0000
0000
0000
0000
0000
0000
0FC0
1FE0
3FF0
7FF8
F87C
F03C
F03C
F03C
F03C
F03C
F03C
903C
903C
007C
00FC
01FC
03FC
07FC
0FFC
1FFC
3FBC
7F3C
7E3C
F83C
F83C
F03C
F03C
F03C
F03C
F03C
F03C
F03C
F03C
F87C
7FFC
3FFC
1FE4
0F80
ENDCHAR
STARTCHAR 00E5
ENCODING 229
SWIDTH 217 0
DWIDTH 20 0
BBX 14 49 3 -1
BITMAP
0F80
1FC0
18C0
1860
1860
18C0
0FC0
0780
0000
0000
0000
0F80
3FE0
7FF0
7FF8
F878
F03C
F03C
F03C
F03C
F03C
F03C
B03C
107C
00FC
01FC
03FC
07FC
1FFC
3FFC
7FBC
7F3C
FC3C
F83C
F03C
F03C
F03C
F03C
F03C
F03C
F03C
F03C
F03C
F07C
F87C
7FFC
7FFC
3FCC
0F84
ENDCHAR
STARTCHAR 00E6
ENCODING 230
SWIDTH 315 0
DWIDTH 29 0
BBX 22 38 3 -1
BITMAP
0F87C0
3FDFE0
7FFFF0
FFFFF8
F8FC78
F0783C
F0783C
F0783C
F0783C
F0783C
F0783C
B0783C
10783C
00F83C
01F87C
03F8FC
07F9FC
0FFBF8
1FFFF0
3FFFE0
7F7F80
7E7F00
FC7E00
F87C00
F07800
F07800
F07804
F0782C
F0783C
F0783C
F0783C
F0783C
F0787C
F8FC78
FFFFF8
7FFFF0
3FDFE0
0F07C0
ENDCHAR
STARTCHAR 00E7
ENCODING 231
SWIDTH 217 0
DWIDTH 20 0
BBX 15 55 3 -18
BITMAP
07C0
1FF0
3FF8
7FF8
787C
F03C
F03C
F03C
F03C
F03C
F03C
F03C
F034
F020
F000
F000
F000
F000
F000
F000
F000
F000
F000
F024
F034
F03C
F03C
F03C
F03C
F03C
F03C
F03C
F87C
7FFC
7FF8
3FF0
1FE0
0780
0700
0700
0700
0700
07E0
07F8
07FC
07FE
003E
001E
001E
001E
003E
0FFC
07F8
07F0
0FC0
ENDCHAR
STARTCHAR 00E8
ENCODING 232
SWIDTH 217 0
DWIDTH 20 0
BBX 14 55 3 0
BITMAP
2000
3000
3800
3C00
1E00
0F80
07C0
03E0
01E0
00E0
0060
0020
0000
0000
0000
0000
0000
0FC0
1FE0
3FF0
7FF8
F87C
F03C
F03C
F03C
F03C
F03C
F03C
F03C
F03C
F03C
F03C
F0FC
F1FC
F3F8
FFF0
FFE0
FF80
FF00
FE00
F800
F000
F000
F024
F024
F03C
F03C
F03C
F03C
F03C
F87C
7FF8
3FF0
1FE0
0FC0
ENDCHAR
STARTCHAR 00E9
ENCODING 233
SWIDTH 217 0
DWIDTH 20 0
BBX 14 55 3 0
BITMAP
0018
0038
0078
00F8
01F0
03E0
07C0
0F80
0F00
0E00
0C00
0800
0000
0000
0000
0000
0000
0FC0
1FE0
3FF0
7FF8
F87C
F03C
F03C
F03C
F03C
F03C
F03C
F03C
F03C
F03C
F03C
F0FC
F1FC
F3F8
FFF0
FFE0
FF80
FF00
FE00
F800
F000
F000
F024
F024
F03C
F03C
F03C
F03C
F03C
F87C
7FF8
3FF0
1FE0
0FC0
ENDCHAR
STARTCHAR 00EA
ENCODING 234
SWIDTH 217 0
DWIDTH 20 0
BBX 14 56 3 -1
BITMAP
0200
0700
0F80
1FC0
3DE0
7CF0
F878
F078
E038
C018
8008
0000
0000
0000
0000
0000
0000
0000
0FC0
1FE0
3FF0
7FF8
F87C
F03C
F03C
F03C
F03C
F03C
F03C
F03C
F03C
F03C
F03C
F0FC
F1FC
F3F8
FFF0
FFE0
FF80
FF00
FE00
F800
F000
F000
F024
F024
F03C
F03C
F03C
F03C
F03C
F87C
7FF8
3FF0
1FE0
0FC0
ENDCHAR
STARTCHAR 00EB
ENCODING 235
SWIDTH 217 0
DWIDTH 20 0
BBX 14 53 3 0
BITMAP
0030
3070
78F8
FCFC
78F8
3070
1030
0000
0000
0000
0000
0000
0000
0000
0000
0FC0
1FE0
3FF0
7FF8
F87C
F03C
F03C
F03C
F03C
F03C
F03C
F03C
F03C
F03C
F03C
F0FC
F1FC
F3F8
FFF0
FFE0
FF80
FF00
FE00
F800
F000
F000
F024
F024
F03C
F03C
F03C
F03C
F03C
F87C
7FF8
3FF0
1FE0
0FC0
ENDCHAR
STARTCHAR 00EC
ENCODING 236
SWIDTH 119 0
DWIDTH 11 0
BBX 9 54 0 0
BITMAP
8000
C000
E000
F000
7800
3E00
1F00
0F80
0780
0380
0180
0080
0000
0000
0000
0000
0000
0200
1200
1E00
1E00
1E00
1E00
1E00
1E00
1E00
1E00
1E00
1E00
1E00
1E00
1E00
1E00
1E00
1E00
1E00
1E00
1E00
1E00
1E00
1E00
1E00
1E00
1E00
1E00
1E00
1E00
1E00
1E00
1E00
1E00
1E00
1E00
1200
ENDCHAR
STARTCHAR 00ED
ENCODING 237
SWIDTH 119 0
DWIDTH 11 0
BBX 9 54 2 0
BITMAP
0180
0380
0780
0F80
1F00
3E00
7C00
F800
F000
E000
C000
8000
0000
0000
0000
0000
0000
0800
4800
7800
7800
7800
7800
7800
7800
7800
7800
7800
7800
7800
7800
7800
7800
7800
7800
7800
7800
7800
7800
7800
7800
7800
7800
7800
7800
7800
7800
7800
7800
7800
7800
7800
7800
4800
ENDCHAR
STARTCHAR 00EE
ENCODING 238
SWIDTH 119 0
DWIDTH 11 0
BBX 13 55 -2 -1
BITMAP
0200
0700
0F80
1FC0
3DE0
7CF0
F878
F078
E038
C018
8008
0000
0000
0000
0000
0000
0000
0000
0080
0480
0780
0780
0780
0780
0780
0780
0780
0780
0780
0780
0780
0780
0780
0780
0780
0780
0780
0780
0780
0780
0780
0780
0780
0780
0780
0780
0780
0780
0780
0780
0780
0780
0780
0780
0480
ENDCHAR
STARTCHAR 00EF
ENCODING 239
SWIDTH 119 0
DWIDTH 11 0
BBX 14 52 -2 0
BITMAP
0030
3070
78F8
FCFC
78F8
3070
1030
0000
0000
0000
0000
0000
0000
0000
0000
0080
0480
0780
0780
0780
0780
0780
0780
0780
0780
0780
0780
0780
0780
0780
0780
0780
0780
0780
0780
0780
0780
0780
0780
0780
0780
0780
0780
0780
0780
0780
0780
0780
0780
0780
0780
0480
ENDCHAR
STARTCHAR 00F0
ENCODING 240
SWIDTH 217 0
DWIDTH 20 0
BBX 16 71 3 -1
BITMAP
7000
3E00
3F80
7FC0
0FE0
03F0
00F0
00F8
0078
0078
003C
003C
003C
003C
003C
003C
003C
003C
003C
003C
3FFF
3FFF
003C
003C
003C
003C
003C
003C
003C
003C
003C
003C
003C
0FFC
1FFC
3FFC
7FFC
787C
F03C
F03C
F03C
F03C
F03C
F03C
F03C
F03C
F03C
F03C
F03C
F03C
F03C
F03C
F03C
F03C
F03C
F03C
F03C
F03C
F03C
F03C
F03C
F03C
F03C
F03C
F03C
F03C
787C
7FF8
3FF8
1FF0
07C0
ENDCHAR
STARTCHAR 00F1
ENCODING 241
SWIDTH 217 0
DWIDTH 20 0
BBX 14 52 3 -1
BITMAP
3800
7E00
FF08
FF0C
C78C
43FC
81FC
01F8
0070
0000
0000
0000
0000
0000
0000
87C0
DFE0
FFF0
FFF8
F87C
F03C
F03C
F03C
F03C
F03C
F03C
F03C
F03C
F03C
F03C
F03C
F03C
F03C
F03C
F03C
F03C
F03C
F03C
F03C
F03C
F03C
F03C
F03C
F03C
F03C
F03C
F03C
F03C
F03C
F03C
F03C
9024
ENDCHAR
STARTCHAR 00F2
ENCODING 242
SWIDTH 217 0
DWIDTH 20 0
BBX 14 55 3 0
BITMAP
2000
3000
3800
3C00
1E00
0F80
07C0
03E0
01E0
00E0
0060
0020
0000
0000
0000
0000
0000
0FC0
1FE0
3FF0
7FF8
F87C
F03C
F03C
F03C
F03C
F03C
F03C
F03C
F03C
F03C
F03C
F03C
F03C
F03C
F03C
F03C
F03C
F03C
F03C
F03C
F03C
F03C
F03C
F03C
F03C
F03C
F03C
F03C
F03C
F87C
7FF8
3FF0
1FE0
0FC0
ENDCHAR
STARTCHAR 00F3
ENCODING 243
SWIDTH 217 0
DWIDTH 20 0
BBX 14 55 3 0
BITMAP
0018
0038
0078
00F8
01F0
03E0
07C0
0F80
0F00
0E00
0C00
0800
0000
0000
0000
0000
0000
0FC0
1FE0
3FF0
7FF8
F87C
F03C
F03C
F03C
F03C
F03C
F03C
F03C
F03C
F03C
F03C
F03C
F03C
F03C
F03C
F03C
F03C
F03C
F03C
F03C
F03C
F03C
F03C
F03C
F03C
F03C
F03C
F03C
F03C
F87C
7FF8
3FF0
1FE0
0FC0
ENDCHAR
STARTCHAR 00F4
ENCODING 244
SWIDTH 217 0
DWIDTH 20 0
BBX 14 56 3 -1
BITMAP
0200
0700
0F80
1FC0
3DE0
7CF0
F878
F078
E038
C018
8008
0000
0000
0000
0000
0000
0000
0000
0FC0
1FE0
3FF0
7FF8
F87C
F03C
F03C
F03C
F03C
F03C
F03C
F03C
F03C
F03C
F03C
F03C
F03C
F03C
F03C
F03C
F03C
F03C
F03C
F03C
F03C
F03C
F03C
F03C
F03C
F03C
F03C
F03C
F03C
F87C
7FF8
3FF0
1FE0
0FC0
ENDCHAR
STARTCHAR 00F5
ENCODING 245
SWIDTH 217 0
DWIDTH 20 0
BBX 14 53 3 -1
BITMAP
3800
7E00
FF08
FF0C
C78C
43FC
81FC
01F8
0070
0000
0000
0000
0000
0000
0000
0FC0
1FE0
3FF0
7FF8
F87C
F03C
F03C
F03C
F03C
F03C
F03C
F03C
F03C
F03C
F03C
F03C
F03C
F03C
F03C
F03C
F03C
F03C
F03C
F03C
F03C
F03C
F03C
F03C
F03C
F03C
F03C
F03C
F03C
F87C
7FF8
3FF0
1FE0
0FC0
ENDCHAR
STARTCHAR 00F6
ENCODING 246
SWIDTH 217 0
DWIDTH 20 0
BBX 14 53 3 0
BITMAP
0030
3070
78F8
FCFC
78F8
3070
1030
0000
0000
0000
0000
0000
0000
0000
0000
0FC0
1FE0
3FF0
7FF8
F87C
F03C
F03C
F03C
F03C
F03C
F03C
F03C
F03C
F03C
F03C
F03C
F03C
F03C
F03C
F03C
F03C
F03C
F03C
F03C
F03C
F03C
F03C
F03C
F03C
F03C
F03C
F03C
F03C
F87C
7FF8
3FF0
1FE0
0FC0
ENDCHAR
STARTCHAR 00F7
ENCODING 247
SWIDTH 836 0
DWIDTH 77 0
BBX 54 41 11 7
BITMAP
0000007C000000
000000FE000000
000001FF000000
000001FF000000
000003FF000000
000003FF000000
000001FF000000
000001FF000000
000000FE000000
0000007C000000
00000000000000
00000000000000
00000000000000
00000000000000
00000000000000
00000000000000
00000000000000
00000000000000
00000000000000
FFFFFFFFFFFFFC
FFFFFFFFFFFFFC
FFFFFFFFFFFFFC
FFFFFFFFFFFFFC
00000000000000
00000000000000
00000000000000
00000000000000
00000000000000
00000000000000
00000000000000
00000000000000
0000007C000000
000000FE000000
000001FF000000
000001FF000000
000003FF000000
000003FF000000
000001FF000000
000001FF000000
000000FE000000
0000007C000000
ENDCHAR
STARTCHAR 00F8
ENCODING 248
SWIDTH 217 0
DWIDTH 20 0
BBX 19 38 1 -1
BITMAP
01F060
07F840
0FFCC0
1FFE80
1F1F80
1E1F00
1E0F00
1E0F00
1E0F00
1E0F00
1E0F00
1E0F00
1E0F00
1E1F00
1E1F00
1E2F00
1E2F00
1E4F00
1E4F00
1E8F00
1E8F00
1F0F00
1F0F00
1E0F00
1E0F00
1E0F00
1E0F00
1E0F00
1E0F00
1E0F00
1E0F00
3E0F00
3E1F00
7FBE00
5FFE00
5FFC00
8FF800
83E000
ENDCHAR
STARTCHAR 00F9
ENCODING 249
SWIDTH 217 0
DWIDTH 20 0
BBX 14 55 3 0
BITMAP
2000
3000
3800
3C00
1E00
0F80
07C0
03E0
01E0
00E0
0060
0020
0000
0000
0000
0000
0000
0004
9024
F03C
F03C
F03C
F03C
F03C
F03C
F03C
F03C
F03C
F03C
F03C
F03C
F03C
F03C
F03C
F03C
F03C
F03C
F03C
F03C
F03C
F03C
F03C
F03C
F03C
F03C
F03C
F03C
F03C
F03C
F03C
F87C
7FFC
3FFC
1FE4
0F80
ENDCHAR
STARTCHAR 00FA
ENCODING 250
SWIDTH 217 0
DWIDTH 20 0
BBX 14 55 3 0
BITMAP
0018
0038
0078
00F8
01F0
03E0
07C0
0F80
0F00
0E00
0C00
0800
0000
0000
0000
0000
0000
0004
9024
F03C
F03C
F03C
F03C
F03C
F03C
F03C
F03C
F03C
F03C
F03C
F03C
F03C
F03C
F03C
F03C
F03C
F03C
F03C
F03C
F03C
F03C
F03C
F03C
F03C
F03C
F03C
F03C
F03C
F03C
F03C
F87C
7FFC
3FFC
1FE4
0F80
ENDCHAR
STARTCHAR 00FB
ENCODING 251
SWIDTH 217 0
DWIDTH 20 0
BBX 14 56 3 -1
BITMAP
0200
0700
0F80
1FC0
3DE0
7CF0
F878
F078
E038
C018
8008
0000
0000
0000
0000
0000
0000
0000
0004
9024
F03C
F03C
F03C
F03C
F03C
F03C
F03C
F03C
F03C
F03C
F03C
F03C
F03C
F03C
F03C
F03C
F03C
F03C
F03C
F03C
F03C
F03C
F03C
F03C
F03C
F03C
F03C
F03C
F03C
F03C
F03C
F87C
7FFC
3FFC
1FE4
0F80
ENDCHAR
STARTCHAR 00FC
ENCODING 252
SWIDTH 217 0
DWIDTH 20 0
BBX 14 53 3 0
BITMAP
0030
3070
78F8
FCFC
78F8
3070
1030
0000
0000
0000
0000
0000
0000
0000
0000
0004
9024
F03C
F03C
F03C
F03C
F03C
F03C
F03C
F03C
F03C
F03C
F03C
F03C
F03C
F03C
F03C
F03C
F03C
F03C
F03C
F03C
F03C
F03C
F03C
F03C
F03C
F03C
F03C
F03C
F03C
F03C
F03C
F87C
7FFC
3FFC
1FE4
0F80
ENDCHAR
STARTCHAR 00FD
ENCODING 253
SWIDTH 217 0
DWIDTH 20 0
BBX 17 74 1 -20
BITMAP
000600
000E00
001E00
003E00
007C00
00F800
01F000
03E000
03C000
038000
030000
020000
000000
000000
000000
000000
000000
880880
C80980
F80F80
7C0F80
7C1F00
7C1F00
7C1F00
7C1F00
7C1F00
3E1E00
3E1E00
3E1E00
3E3E00
3E3E00
3E3E00
3F3C00
1F3C00
1F3C00
1F3C00
1F3C00
1F7C00
1F7800
0FF800
0FF800
0FF800
0FF800
0FF800
0FF000
07F000
07F000
07F000
07F000
07E000
07E000
03E000
03E000
03E000
07E000
07C000
07C000
07C000
07C000
07C000
0FC000
0F8000
0F8000
0F8000
0F8000
0F8000
1F0000
1F0000
1F0000
1F0000
1F0000
1F0000
3E0000
320000
ENDCHAR
STARTCHAR 00FE
ENCODING 254
SWIDTH 217 0
DWIDTH 20 0
BBX 14 95 3 -21
BITMAP
8000
9000
F000
F000
F000
F000
F000
F000
F000
F000
F000
F000
F000
F000
F000
F000
F000
F000
F000
F000
F000
F000
F000
F000
F000
F000
F000
F000
F000
F000
F000
F000
F000
F000
F000
F000
F000
FFC0
FFE0
FFF8
FFF8
F87C
F03C
F03C
F03C
F03C
F03C
F03C
F03C
F03C
F03C
F03C
F03C
F03C
F03C
F03C
F03C
F03C
F03C
F03C
F03C
F03C
F03C
F03C
F03C
F03C
F03C
F03C
F03C
F03C
F87C
FFF8
FFF8
FFE0
FFC0
F000
F000
F000
F000
F000
F000
F000
F000
F000
F000
F000
F000
F000
F000
F000
F000
F000
F000
9000
8000
ENDCHAR
STARTCHAR 00FF
ENCODING 255
SWIDTH 217 0
DWIDTH 20 0
BBX 17 72 1 -20
BITMAP
000C00
0C1C00
1E3E00
3F3F00
1E3E00
0C1C00
040C00
000000
000000
000000
000000
000000
000000
000000
000000
880880
C80980
F80F80
7C0F80
7C1F00
7C1F00
7C1F00
7C1F00
7C1F00
3E1E00
3E1E00
3E1E00
3E3E00
3E3E00
3E3E00
3F3C00
1F3C00
1F3C00
1F3C00
1F3C00
1F7C00
1F7800
0FF800
0FF800
0FF800
0FF800
0FF800
0FF000
07F000
07F000
07F000
07F000
07E000
07E000
03E000
03E000
03E000
07E000
07C000
07C000
07C000
07C000
07C000
0FC000
0F8000
0F8000
0F8000
0F8000
0F8000
1F0000
1F0000
1F0000
1F0000
1F0000
1F0000
3E0000
320000
ENDCHAR
STARTCHAR 0131
ENCODING 305
SWIDTH 119 0
DWIDTH 11 0
BBX 4 38 3 -1
BITMAP
80
D0
F0
F0
F0
F0
F0
F0
F0
F0
F0
F0
F0
F0
F0
F0
F0
F0
F0
F0
F0
F0
F0
F0
F0
F0
F0
F0
F0
F0
F0
F0
F0
F0
F0
F0
D0
80
ENDCHAR
STARTCHAR 0141
ENCODING 321
SWIDTH 184 0
DWIDTH 17 0
BBX 17 71 0 -1
BITMAP
020000
120000
1E0000
1E0000
1E0000
1E0000
1E0000
1E0000
1E0000
1E0000
1E0000
1E0000
1E0000
1E0000
1E0000
1E0000
1E0000
1E0000
1E0000
1E0000
1E0000
1E0000
1E0400
1E0C00
1E1C00
1E3C00
1E7800
1EF000
1FE000
1FC000
1F8000
1F0000
1E0000
7E0000
FE0000
FE0000
FE0000
DE0000
9E0000
1E0000
1E0000
1E0000
1E0000
1E0000
1E0000
1E0000
1E0000
1E0000
1E0000
1E0000
1E0000
1E0000
1E0000
1E0000
1E0000
1E0000
1E0000
1E0480
1E0780
1E0780
1E0780
1E0780
1E0780
1E0780
1E0780
1E0780
1E0780
1FFF80
1FFF80
1FFF80
1FFF80
ENDCHAR
STARTCHAR 0142
ENCODING 322
SWIDTH 119 0
DWIDTH 11 0
BBX 9 75 1 -1
BITMAP
2000
2400
3C00
3C00
3C00
3C00
3C00
3C00
3C00
3C00
3C00
3C00
3C00
3C00
3C00
3C00
3C00
3C00
3C00
3C00
3C00
3C00
3C00
3C00
3C00
3C00
3C00
3C00
3C00
3C00
3C00
3C80
3F80
3F80
3F80
3F80
3F00
3E00
7C00
FC00
FC00
FC00
FC00
BC00
3C00
3C00
3C00
3C00
3C00
3C00
3C00
3C00
3C00
3C00
3C00
3C00
3C00
3C00
3C00
3C00
3C00
3C00
3C00
3C00
3C00
3C00
3C00
3C00
3C00
3C00
3C00
1E00
1F00
0C00
0400
ENDCHAR
STARTCHAR 0152
ENCODING 338
SWIDTH 293 0
DWIDTH 27 0
BBX 22 71 3 -1
BITMAP
07FFFC
1FFFF8
3FFFF8
7FFFFC
787C00
F03C00
F03C00
F03C00
F03C00
F03C00
F03C00
F03C00
F03C00
F03C00
F03C00
F03C00
F03C00
F03C00
F03C00
F03C00
F03C00
F03C00
F03C00
F03C00
F03C00
F03C00
F03C00
F03C00
F03C00
F03C00
F03C00
F03C00
F03C00
F03FFC
F03FF8
F03FF8
F03FFC
F03C00
F03C00
F03C00
F03C00
F03C00
F03C00
F03C00
F03C00
F03C00
F03C00
F03C00
F03C00
F03C00
F03C00
F03C00
F03C00
F03C00
F03C00
F03C00
F03C00
F03C00
F03C00
F03C00
F03C00
F03C00
F03C00
F03C00
F03C00
F03C00
787C00
7FFFFC
3FFFF8
1FFFF8
0FFFFC
ENDCHAR
STARTCHAR 0153
ENCODING 339
SWIDTH 315 0
DWIDTH 29 0
BBX 22 38 3 -1
BITMAP
0F87C0
1FFFF0
3FFFF8
7FFFF8
78FC7C
F0783C
F0783C
F0783C
F0783C
F0783C
F0783C
F0783C
F0783C
F0783C
F0783C
F0787C
F078FC
F07BFC
F07FF0
F07FE0
F07FC0
F07F80
F07F00
F07C00
F07800
F07800
F07820
F07834
F0783C
F0783C
F0783C
F0783C
F0783C
78FC7C
7FFFF8
3FFFF8
1FEFF0
0F87C0
ENDCHAR
STARTCHAR 0160
ENCODING 352
SWIDTH 217 0
DWIDTH 20 0
BBX 14 87 3 0
BITMAP
8008
C018
E038
F078
78F0
3DE0
1FC0
0F80
0700
0200
0000
0000
0000
0000
0000
0000
0FC0
1FE0
3FF0
7FF8
F87C
F03C
F03C
F03C
F03C
F03C
F03C
F03C
F03C
F03C
F03C
F03C
F03C
F03C
F03C
F03C
F03C
F03C
F03C
F03C
F024
F000
F000
F000
F000
F000
F000
F800
FC00
7E00
7F00
3F80
1FC0
0FE0
07F0
03F8
01FC
00FC
007C
003C
003C
903C
903C
F03C
F03C
F03C
F03C
F03C
F03C
F03C
F03C
F03C
F03C
F03C
F03C
F03C
F03C
F03C
F03C
F03C
F03C
F03C
F87C
7FF8
3FF0
1FE0
0FC0
ENDCHAR
STARTCHAR 0161
ENCODING 353
SWIDTH 206 0
DWIDTH 19 0
BBX 14 54 2 0
BITMAP
4004
600C
701C
783C
3C78
1EF0
0FE0
07C0
0380
0100
0000
0000
0000
0000
0000
0000
0FC0
1FE0
3FF0
7FF8
F87C
F03C
F03C
F03C
F03C
F03C
F03C
F03C
F024
F800
FC00
7E00
7F00
3F80
1FC0
0FE0
07F0
03F8
01F8
00FC
907C
903C
F03C
F03C
F03C
F03C
F03C
F03C
F03C
F87C
7FF8
3FF0
1FE0
0FC0
ENDCHAR
STARTCHAR 0178
ENCODING 376
SWIDTH 217 0
DWIDTH 20 0
BBX 17 85 1 0
BITMAP
000C00
0C1C00
1E3E00
3F3F00
1E3E00
0C1C00
040C00
000000
000000
000000
000000
000000
000000
000000
000000
800800
C80980
F80F80
FC1F80
7C1F00
7C1F00
7C1F00
7C1F00
7C1F00
7C1F00
7C3E00
3E3E00
3E3E00
3E3E00
3E3E00
3E3E00
3E7E00
3E7C00
3F7C00
1F7C00
1F7C00
1F7C00
1FFC00
1FF800
1FF800
1FF800
0FF800
0FF800
0FF800
0FF000
0FF000
0FF000
0FF000
07F000
07F000
07F000
07E000
07E000
07E000
07E000
07E000
03E000
03C000
03C000
03C000
03C000
03C000
03C000
03C000
03C000
03C000
03C000
03C000
03C000
03C000
03C000
03C000
03C000
03C000
03C000
03C000
03C000
03C000
03C000
03C000
03C000
03C000
03C000
03C000
024000
ENDCHAR
STARTCHAR 017D
ENCODING 381
SWIDTH 173 0
DWIDTH 16 0
BBX 17 87 0 0
BITMAP
200200
300600
380E00
3C1E00
1E3C00
0F7800
07F000
03E000
01C000
008000
000000
000000
000000
000000
000000
000000
3FFF80
1FFF80
1FFF80
3FFF00
001F00
001F00
001F00
001F00
003F00
003E00
003E00
003E00
003E00
003E00
007C00
007C00
007C00
007C00
007C00
007C00
00F800
00F800
00F800
00F800
00F800
01F800
01F000
01F000
01F000
01F000
01F000
03F000
03E000
03E000
03E000
03E000
03E000
07E000
07C000
07C000
07C000
07C000
07C000
0FC000
0F8000
0F8000
0F8000
0F8000
0F8000
1F8000
1F0000
1F0000
1F0000
1F0000
1F0000
3E0000
3E0000
3E0000
3E0000
3E0000
3E0000
7C0000
7C0000
7C0000
7C0000
7C0000
7C0000
FFFF00
FFFE00
FFFE00
FFFF00
ENDCHAR
STARTCHAR 017E
ENCODING 382
SWIDTH 184 0
DWIDTH 17 0
BBX 17 54 0 0
BITMAP
200200
300600
380E00
3C1E00
1E3C00
0F7800
07F000
03E000
01C000
008000
000000
000000
000000
000000
000000
000000
7FFF80
3FFF00
3FFF00
7FFF00
003E00
003E00
007E00
007C00
007C00
00FC00
00F800
00F800
00F800
01F800
01F000
01F000
03F000
03E000
03E000
07E000
07C000
07C000
0FC000
0F8000
0F8000
0F8000
1F0000
1F0000
1F0000
3F0000
3E0000
3E0000
7E0000
7C0000
7FFF00
FFFE00
FFFE00
FFFF00
ENDCHAR
STARTCHAR 0192
ENCODING 402
SWIDTH 217 0
DWIDTH 20 0
BBX 20 88 -1 -18
BITMAP
0007C0
001FE0
003FF0
007F80
007880
00F800
00F000
00F000
00F000
00F000
00F000
00F000
00F000
00F000
00F000
00F000
00F000
00F000
00F000
00F000
00F000
00F000
00F000
00F000
00F000
00F000
00F000
00F000
00F000
00F000
00F000
00F000
00F000
1FFFC0
0FFF80
0FFF80
1FFFC0
00F000
00F000
00F000
00F000
00F000
00F000
00F000
00F000
00F000
00F000
00F000
00F000
00F000
00F000
00F000
00F000
00F000
00F000
00F000
00F000
00F000
00F000
00F000
00F000
00F000
00F000
00F000
00F000
00F000
00F000
00F000
00F000
00F000
00F000
00F000
00F000
00F000
00F000
00F000
00F000
00F000
00F000
00F000
00F000
00F000
00F000
10F000
1FE000
FFE000
7FC000
1F0000
ENDCHAR
STARTCHAR 02C6
ENCODING 710
SWIDTH 500 0
DWIDTH 46 0
BBX 13 10 16 44
BITMAP
0300
0780
0FC0
1FE0
3CF0
7878
F038
E018
C008
8000
ENDCHAR
STARTCHAR 02C7
ENCODING 711
SWIDTH 500 0
DWIDTH 46 0
BBX 13 10 16 44
BITMAP
8008
C018
E038
F878
7CF8
3FF0
1FE0
0FC0
0780
0300
ENDCHAR
STARTCHAR 02C9
ENCODING 713
SWIDTH 500 0
DWIDTH 46 0
BBX 13 5 16 46
BITMAP
FFF8
FFF8
FFF8
FFF8
FFF8
ENDCHAR
STARTCHAR 02D8
ENCODING 728
SWIDTH 500 0
DWIDTH 46 0
BBX 14 7 16 45
BITMAP
F03C
7038
7878
7FF8
3FF0
1FE0
0FC0
ENDCHAR
STARTCHAR 02D9
ENCODING 729
SWIDTH 500 0
DWIDTH 46 0
BBX 8 6 19 46
BITMAP
18
3C
FF
7E
3C
18
ENDCHAR
STARTCHAR 02DA
ENCODING 730
SWIDTH 500 0
DWIDTH 46 0
BBX 12 12 17 42
BITMAP
0F80
3FC0
70E0
6070
C030
C030
C030
E030
7070
7FE0
3FC0
0F80
ENDCHAR
STARTCHAR 02DB
ENCODING 731
SWIDTH 500 0
DWIDTH 46 0
BBX 11 18 18 -18
BITMAP
01C0
0FC0
1FC0
3F80
7C00
7800
7800
F000
F000
F000
F800
7800
7C00
7E00
3FE0
1FC0
0FC0
03E0
ENDCHAR
STARTCHAR 02DC
ENCODING 732
SWIDTH 500 0
DWIDTH 46 0
BBX 14 9 16 43
BITMAP
3800
7E00
FF08
FF0C
C7CC
43FC
81FC
01F8
0070
ENDCHAR
STARTCHAR 02DD
ENCODING 733
SWIDTH 500 0
DWIDTH 46 0
BBX 13 9 18 43
BITMAP
3020
3830
3878
7870
70F0
F0E0
E1E0
60C0
0040
ENDCHAR
STARTCHAR 0394
ENCODING 916
SWIDTH 608 0
DWIDTH 56 0
BBX 53 63 2 -1
BITMAP
00000070000000
00000070000000
000000F0000000
000000F8000000
000000F8000000
000001FC000000
000001FC000000
000003FC000000
000003FE000000
000007FE000000
000007FF000000
000007FF000000
00000FFF000000
00000FFF800000
00001FFF800000
00001CFFC00000
00001CFFC00000
00003C7FC00000
0000387FE00000
0000783FE00000
0000703FF00000
0000703FF00000
0000F01FF00000
0000E01FF80000
0001E00FF80000
0001C00FFC0000
0001C00FFC0000
0003C007FC0000
00038007FE0000
00078003FE0000
00070003FF0000
00070003FF0000
000F0001FF0000
000E0001FF8000
001E0000FF8000
001C0000FFC000
001C0000FFC000
003800007FC000
003800007FE000
007800003FE000
007000003FF000
007000003FF000
00E000001FF000
00E000001FF800
01E000000FF800
01C000000FFC00
01C000000FFC00
0380000007FC00
0380000007FE00
0780000003FE00
0700000003FF00
0700000003FF00
0E00000001FF80
0E00000001FF80
1E00000000FF80
1C00000000FFC0
1C00000000FFC0
38000000007FE0
38000000007FE0
78000000003FE0
70000000003FF0
7FFFFFFFFFFFF0
FFFFFFFFFFFFF8
ENDCHAR
STARTCHAR 03A9
ENCODING 937
SWIDTH 771 0
DWIDTH 71 0
BBX 61 63 5 -1
BITMAP
000001FFF8000000
00003FFFFFC00000
0000FF801FF80000
0007FC0003FE0000
001FF00000FF8000
003FE000007FC000
00FFC000003FF000
01FF8000001FF800
03FF0000000FFC00
07FE00000007FE00
0FFC00000003FF00
0FFC00000003FF80
1FF800000001FF80
3FF800000001FFC0
3FF000000000FFC0
7FF000000000FFE0
7FF0000000007FE0
7FE0000000007FE0
FFE0000000007FF0
FFE0000000007FF0
FFE0000000007FF0
FFE0000000007FF0
FFE0000000007FF0
FFE0000000003FF8
FFE0000000003FF8
FFE0000000003FF8
FFE0000000003FF8
FFE0000000007FF0
FFE0000000007FF0
FFE0000000007FF0
FFE0000000007FF0
FFE0000000007FF0
7FE0000000007FF0
7FF0000000007FE0
7FF000000000FFE0
3FF000000000FFE0
3FF800000000FFC0
1FF800000001FF80
1FFC00000001FF80
0FFC00000003FF00
07FE00000003FE00
03FF00000007FC00
01FF0000000FF800
00FF8000001FF000
003FE000003FE000
001FF000007F8000
0007FE0003FF0000
7001FF8007F80030
70003F8007C00070
7000018006000070
7000018006000070
7000018006000070
78000180060000F0
7C000180060000F0
7E000180060003F0
7FFFFF8007FFFFF0
7FFFFF8007FFFFF0
7FFFFF8007FFFFF0
7FFFFF8007FFFFF0
7FFFFF8007FFFFF0
7FFFFF8007FFFFF0
3FFFFF8007FFFFF0
3FFFFF8007FFFFF0
ENDCHAR
STARTCHAR 03BC
ENCODING 956
SWIDTH 554 0
DWIDTH 51 0
BBX 51 67 -4 -19
BITMAP
0003F0000007E0
0003F0000007E0
0003F0000007E0
0007F0000007E0
0007E000000FE0
0007E000000FC0
0007E000000FC0
0007E000000FC0
000FE000000FC0
000FC000001FC0
000FC000001F80
000FC000001F80
000FC000001F80
001F8000003F80
001F8000003F00
001F8000003F00
001F8000003F00
003F8000003F00
003F0000007F00
003F0000007E00
003F0000007E00
003F0000007E00
007F0000007E00
007E000000FE00
007E000000FC00
007E000000FC00
007E000000FC00
00FE000001FC00
00FC000001F800
00FC000001F800
00FC000001F800
01FC000003F800
01FC000003F800
01FC000007F000
01FC000007F000
01FC000007F000
03FC00000FF000
03FE00001FF000
03FE00001FE000
03FE00003FE000
03FF00007FE000
07FF8000FFE000
07EFC003FFF000
07EFF00FF7F800
07E7FFFFE7FF00
07E3FFFFC7FF00
0FC1FFFF83FE00
0FC07FFE01FE00
0FC01FF000FE00
0FC00000000000
1FC00000000000
1F800000000000
1F800000000000
1F800000000000
1F800000000000
3F800000000000
3F000000000000
3F000000000000
3F000000000000
3F000000000000
7F000000000000
7E000000000000
7E000000000000
7E000000000000
7E000000000000
FC000000000000
FC000000000000
ENDCHAR
STARTCHAR 03C0
ENCODING 960
SWIDTH 554 0
DWIDTH 51 0
BBX 47 44 2 -1
BITMAP
00000000000E
00000000001E
007FFFFFFFFC
07FFFFFFFFFC
0FFFFFFFFFFC
1FFFFFFFFFFC
3FFFFFFFFFF8
7FFFFFFFFFF0
7FFFFFFFFF80
7C0E001FE000
F00E001FE000
E00E001FE000
C00E001FE000
000E001FE000
000E001FE000
000E001FE000
000C001FE000
000C001FE000
000C001FE000
000C001FE000
000C001FE000
000C001FE000
000C001FE000
000C001FE000
000C001FE000
001C001FE000
001C001FE000
001C001FE000
001C001FE000
001C001FE00C
001C001FE00C
003C001FE00C
C03C001FE00C
C07C001FE01C
C0FC001FE01C
E1F8001FE018
FFF8001FE018
FFF8001FE038
FFF8000FF038
FFF0000FF8F0
7FF00007FFE0
7FE00007FFE0
3FC00001FF80
0F8000007E00
ENDCHAR
STARTCHAR 2010
ENCODING 8208
SWIDTH 173 0
DWIDTH 16 0
BBX 11 4 3 17
BITMAP
FFE0
7FE0
7FE0
FFE0
ENDCHAR
STARTCHAR 2013
ENCODING 8211
SWIDTH 239 0
DWIDTH 22 0
BBX 16 4 3 17
BITMAP
FFFF
7FFE
7FFE
FFFF
ENDCHAR
STARTCHAR 2014
ENCODING 8212
SWIDTH 347 0
DWIDTH 32 0
BBX 26 4 3 17
BITMAP
FFFFFFC0
7FFFFF80
7FFFFF80
FFFFFFC0
ENDCHAR
STARTCHAR 2018
ENCODING 8216
SWIDTH 130 0
DWIDTH 12 0
BBX 8 12 2 58
BITMAP
18
18
39
3E
7C
78
78
F0
F0
F0
F0
F0
ENDCHAR
STARTCHAR 2019
ENCODING 8217
SWIDTH 130 0
DWIDTH 12 0
BBX 8 12 2 57
BITMAP
0F
0F
1E
1E
1E
1E
3C
3C
7C
F8
F0
30
ENDCHAR
STARTCHAR 201A
ENCODING 8218
SWIDTH 119 0
DWIDTH 11 0
BBX 8 10 2 -6
BITMAP
08
1E
1F
3F
3E
7E
7C
FC
D8
18
ENDCHAR
STARTCHAR 201C
ENCODING 8220
SWIDTH 206 0
DWIDTH 19 0
BBX 16 12 1 58
BITMAP
0808
1C1C
1D1D
3F3F
3E3E
3C3C
7C7C
7878
7878
7878
F0F0
F0F0
ENDCHAR
STARTCHAR 201D
ENCODING 8221
SWIDTH 206 0
DWIDTH 19 0
BBX 17 13 1 57
BITMAP
0F0780
0F0780
0E0700
1E0F00
1E0F00
1E0F00
3C1E00
3C1E00
3C3E00
787C00
D87800
101800
100000
ENDCHAR
STARTCHAR 201E
ENCODING 8222
SWIDTH 206 0
DWIDTH 19 0
BBX 16 13 2 -7
BITMAP
1E0F
1E0F
1E0E
3C1E
3C1E
3C1E
7C3C
787C
F87C
F0F8
3030
2030
2000
ENDCHAR
STARTCHAR 2020
ENCODING 8224
SWIDTH 195 0
DWIDTH 18 0
BBX 17 69 1 0
BITMAP
024000
03C000
03C000
03C000
03C000
03C000
03C000
03C000
03C000
03C000
03C000
03C000
03C000
03C000
03C000
03C000
03C000
03C000
FFFF80
7FFF00
7FFF00
FFFF80
03C000
03C000
03C000
03C000
03C000
03C000
03C000
03C000
03C000
03C000
03C000
03C000
03C000
03C000
03C000
03C000
03C000
03C000
03C000
03C000
03C000
03C000
03C000
03C000
03C000
03C000
03C000
03C000
03C000
03C000
03C000
03C000
03C000
03C000
03C000
03C000
03C000
03C000
03C000
03C000
03C000
03C000
03C000
03C000
03C000
03C000
024000
ENDCHAR
STARTCHAR 2021
ENCODING 8225
SWIDTH 195 0
DWIDTH 18 0
BBX 17 69 1 0
BITMAP
024000
03C000
03C000
03C000
03C000
03C000
03C000
03C000
03C000
03C000
03C000
03C000
03C000
03C000
03C000
03C000
03C000
03C000
FFFF80
7FFF00
7FFF00
FFFF80
03C000
03C000
03C000
03C000
03C000
03C000
03C000
03C000
03C000
03C000
FFFF80
7FFF00
7FFF00
FFFF80
03C000
03C000
03C000
03C000
03C000
03C000
03C000
03C000
03C000
03C000
03C000
03C000
03C000
03C000
03C000
03C000
03C000
03C000
03C000
03C000
03C000
03C000
03C000
03C000
03C000
03C000
03C000
03C000
03C000
03C000
03C000
03C000
024000
ENDCHAR
STARTCHAR 2022
ENCODING 8226
SWIDTH 402 0
DWIDTH 37 0
BBX 22 23 7 23
BITMAP
00FC00
03FF80
0FFFC0
1FFFE0
3FFFF0
3FFFF8
7FFFF8
7FFFF8
7FFFFC
FFFFFC
FFFFFC
FFFFFC
FFFFFC
FFFFFC
7FFFFC
7FFFFC
7FFFF8
3FFFF8
3FFFF0
1FFFE0
0FFFC0
03FF80
00FC00
ENDCHAR
STARTCHAR 2026
ENCODING 8230
SWIDTH 402 0
DWIDTH 37 0
BBX 32 7 2 -2
BITMAP
10000004
3801C00E
7C03E01E
FE07F03F
7C07E01F
3801C01E
1000800C
ENDCHAR
STARTCHAR 2030
ENCODING 8240
SWIDTH 597 0
DWIDTH 55 0
BBX 48 73 3 -1
BITMAP
000000800000
000001980000
0F8001F00000
1FE001F00000
3FF003F00000
7FF003E00000
78F803E00000
F07803E00000
F07807E00000
F07807C00000
F07807C00000
F0780FC00000
F0780F800000
F0780F800000
F0780F800000
F0781F800000
F0781F000000
F0781F000000
F0783F000000
F0783E000000
F0783E000000
F0783E000000
F0787E000000
F0787C000000
78F87C000000
7FF0FC000000
3FF0F8000000
1FE0F8000000
0F80F8000000
0001F8000000
0001F0000000
0001F0000000
0003F0000000
0003E0000000
0003E0000000
0003E0000000
0007E0000000
0007C0000000
0007C0000000
000FC0000000
000F80000000
000F80000000
000F80000000
001F80000000
001F00000000
001F00000000
003F07C001F0
003E0FF003FC
003E1FF807FE
003E3FF80FFE
007E3C7C0F1F
007C783C1E0F
007C783C1E0F
00FC783C1E0F
00F8783C1E0F
00F8783C1E0F
00F8783C1E0F
01F8783C1E0F
01F0783C1E0F
01F0783C1E0F
03F0783C1E0F
03E0783C1E0F
03E0783C1E0F
03E0783C1E0F
07E0783C1E0F
07C0783C1E0F
07C0783C1E0F
0FC0783C1E0F
0F803C7C0F1F
0F803FF80FFE
0D801FF807FE
11800FF003FC
000007C001F0
ENDCHAR
STARTCHAR 2039
ENCODING 8249
SWIDTH 163 0
DWIDTH 15 0
BBX 10 27 3 5
BITMAP
0040
00C0
00C0
01C0
03C0
03C0
07C0
0FC0
0FC0
1F80
3F00
3F00
7E00
FC00
7E00
7E00
3F00
1F80
1F80
0FC0
07C0
07C0
03C0
01C0
01C0
00C0
0040
ENDCHAR
STARTCHAR 203A
ENCODING 8250
SWIDTH 163 0
DWIDTH 15 0
BBX 10 29 3 4
BITMAP
8000
8000
C000
E000
E000
F000
F800
F800
FC00
7E00
7E00
3F00
1F80
1F80
0FC0
0FC0
1F80
3F00
3F00
7E00
FC00
FC00
F800
F000
F000
E000
C000
8000
8000
ENDCHAR
STARTCHAR 2044
ENCODING 8260
SWIDTH 86 0
DWIDTH 8 0
BBX 24 72 -8 0
BITMAP
000008
00000D
00000E
00000E
00000E
00001C
00001C
00001C
00003C
000038
000038
000038
000070
000070
000070
0000F0
0000E0
0000E0
0000E0
0001C0
0001C0
0001C0
0003C0
000380
000380
000380
000700
000700
000700
000F00
000E00
000E00
000E00
001C00
001C00
001C00
003C00
003800
003800
003800
007000
007000
007000
00F000
00E000
00E000
00E000
01C000
01C000
01C000
03C000
038000
038000
038000
070000
070000
070000
0F0000
0E0000
0E0000
0E0000
1C0000
1C0000
1C0000
3C0000
380000
380000
380000
700000
700000
700000
900000
ENDCHAR
STARTCHAR 2122
ENCODING 8482
SWIDTH 293 0
DWIDTH 27 0
BBX 24 11 1 54
BITMAP
FF0E1F
FF0F1F
180F3F
180F3B
180FBB
180FFB
180FF3
180DF3
180DE3
180DE3
180CC3
ENDCHAR
STARTCHAR 2126
ENCODING 8486
SWIDTH 771 0
DWIDTH 71 0
BBX 61 63 5 -1
BITMAP
000001FFF8000000
00003FFFFFC00000
0000FF801FF80000
0007FC0003FE0000
001FF00000FF8000
003FE000007FC000
00FFC000003FF000
01FF8000001FF800
03FF0000000FFC00
07FE00000007FE00
0FFC00000003FF00
0FFC00000003FF80
1FF800000001FF80
3FF800000001FFC0
3FF000000000FFC0
7FF000000000FFE0
7FF0000000007FE0
7FE0000000007FE0
FFE0000000007FF0
FFE0000000007FF0
FFE0000000007FF0
FFE0000000007FF0
FFE0000000007FF0
FFE0000000003FF8
FFE0000000003FF8
FFE0000000003FF8
FFE0000000003FF8
FFE0000000007FF0
FFE0000000007FF0
FFE0000000007FF0
FFE0000000007FF0
FFE0000000007FF0
7FE0000000007FF0
7FF0000000007FE0
7FF000000000FFE0
3FF000000000FFE0
3FF800000000FFC0
1FF800000001FF80
1FFC00000001FF80
0FFC00000003FF00
07FE00000003FE00
03FF00000007FC00
01FF0000000FF800
00FF8000001FF000
003FE000003FE000
001FF000007F8000
0007FE0003FF0000
7001FF8007F80030
70003F8007C00070
7000018006000070
7000018006000070
7000018006000070
78000180060000F0
7C000180060000F0
7E000180060003F0
7FFFFF8007FFFFF0
7FFFFF8007FFFFF0
7FFFFF8007FFFFF0
7FFFFF8007FFFFF0
7FFFFF8007FFFFF0
7FFFFF8007FFFFF0
3FFFFF8007FFFFF0
3FFFFF8007FFFFF0
ENDCHAR
STARTCHAR 2202
ENCODING 8706
SWIDTH 489 0
DWIDTH 45 0
BBX 34 59 6 -1
BITMAP
0001FC0000
000FFF8000
001FF8C000
003FE06000
007FC03000
007FC03800
007F803C00
007F001C00
003C001E00
0000001E00
0000001F00
0000001F00
0000001F00
0000000F00
0000000F80
0000000F80
0000000F80
0000000F80
0000000F80
0000000F80
0000000FC0
0000000FC0
0000000FC0
000FE00FC0
007FFC1FC0
00FE0E1FC0
03F8031FC0
07F0039FC0
0FE0019FC0
0FC000DF80
1FC000DF80
3F8000FF80
3F8000FF80
7F80007F80
7F00007F80
7F00007F80
FF00007F00
FE00007F00
FE00007F00
FE00007F00
FE0000FE00
FE0000FE00
FE0000FE00
FE0000FC00
FE0000FC00
FE0000FC00
FE0001F800
FE0001F800
7E0001F000
7E0003F000
7E0003E000
3E0003E000
3F0007C000
1F000F8000
0F800F0000
07C03E0000
03E07C0000
01FFF00000
003F800000
ENDCHAR
STARTCHAR 2206
ENCODING 8710
SWIDTH 608 0
DWIDTH 56 0
BBX 53 63 2 -1
BITMAP
00000070000000
00000070000000
000000F0000000
000000F8000000
000000F8000000
000001FC000000
000001FC000000
000003FC000000
000003FE000000
000007FE000000
000007FF000000
000007FF000000
00000FFF000000
00000FFF800000
00001FFF800000
00001CFFC00000
00001CFFC00000
00003C7FC00000
0000387FE00000
0000783FE00000
0000703FF00000
0000703FF00000
0000F01FF00000
0000E01FF80000
0001E00FF80000
0001C00FFC0000
0001C00FFC0000
0003C007FC0000
00038007FE0000
00078003FE0000
00070003FF0000
00070003FF0000
000F0001FF0000
000E0001FF8000
001E0000FF8000
001C0000FFC000
001C0000FFC000
003800007FC000
003800007FE000
007800003FE000
007000003FF000
007000003FF000
00E000001FF000
00E000001FF800
01E000000FF800
01C000000FFC00
01C000000FFC00
0380000007FC00
0380000007FE00
0780000003FE00
0700000003FF00
0700000003FF00
0E00000001FF80
0E00000001FF80
1E00000000FF80
1C00000000FFC0
1C00000000FFC0
38000000007FE0
38000000007FE0
78000000003FE0
70000000003FF0
7FFFFFFFFFFFF0
FFFFFFFFFFFFF8
ENDCHAR
STARTCHAR 220F
ENCODING 8719
SWIDTH 826 0
DWIDTH 76 0
BBX 72 88 2 -20
BITMAP
FFFFFFFFFFFFFFFFFF
FFFFFFFFFFFFFFFFFF
007F8000000001FE00
007F8000000001FE00
007F8000000001FE00
007F8000000001FE00
007F8000000001FE00
007F8000000001FE00
007F8000000001FE00
007F8000000001FE00
007F8000000001FE00
007F8000000001FE00
007F8000000001FE00
007F8000000001FE00
007F8000000001FE00
007F8000000001FE00
007F8000000001FE00
007F8000000001FE00
007F8000000001FE00
007F8000000001FE00
007F8000000001FE00
007F8000000001FE00
007F8000000001FE00
007F8000000001FE00
007F8000000001FE00
007F8000000001FE00
007F8000000001FE00
007F8000000001FE00
007F8000000001FE00
007F8000000001FE00
007F8000000001FE00
007F8000000001FE00
007F8000000001FE00
007F8000000001FE00
007F8000000001FE00
007F8000000001FE00
007F8000000001FE00
007F8000000001FE00
007F8000000001FE00
007F8000000001FE00
007F8000000001FE00
007F8000000001FE00
007F8000000001FE00
007F8000000001FE00
007F8000000001FE00
007F8000000001FE00
007F8000000001FE00
007F8000000001FE00
007F8000000001FE00
007F8000000001FE00
007F8000000001FE00
007F8000000001FE00
007F8000000001FE00
007F8000000001FE00
007F8000000001FE00
007F8000000001FE00
007F8000000001FE00
007F8000000001FE00
007F8000000001FE00
007F8000000001FE00
007F8000000001FE00
007F8000000001FE00
007F8000000001FE00
007F8000000001FE00
007F8000000001FE00
007F8000000001FE00
007F8000000001FE00
007F8000000001FE00
007F8000000001FE00
007F8000000001FE00
007F8000000001FE00
007F8000000001FE00
007F8000000001FE00
007F8000000001FE00
007F8000000001FE00
007F8000000001FE00
007F8000000001FE00
007F8000000001FE00
007F8000000001FE00
007F8000000001FE00
007F8000000001FE00
007F8000000001FE00
007F8000000001FE00
007F8000000001FE00
007F8000000001FE00
007F8000000001FE00
FFFFFF800001FFFFFF
FFFFFF800001FFFFFF
ENDCHAR
STARTCHAR 2211
ENCODING 8721
SWIDTH 728 0
DWIDTH 67 0
BBX 57 88 4 -20
BITMAP
0FFFFFFFFFFFF000
0FFFFFFFFFFFF000
07FE00003FFFF000
03FF000003FFF800
03FF000000FFF800
01FF8000003FF800
00FFC000000FF800
007FC0000007F800
007FE0000003F800
003FF0000003F800
001FF8000001F800
001FF8000000FC00
000FFC000000FC00
0007FE0000007C00
0003FE0000007C00
0003FF0000003C00
0001FF8000003C00
0000FFC000001C00
0000FFC000001E00
00007FE000001E00
00003FF000000E00
00001FF000000000
00001FF800000000
00000FFC00000000
000007FE00000000
000003FE00000000
000003FF00000000
000001FF80000000
000000FFC0000000
000000FFC0000000
0000007FE0000000
0000003FF0000000
0000001FF0000000
0000001FF8000000
0000000FFC000000
00000007FE000000
00000007FE000000
00000003FF000000
00000001FF800000
00000000FF800000
00000000FFC00000
000000007FE00000
000000003FF00000
000000003FF00000
000000001FE00000
000000000FE00000
0000000007C00000
0000000007800000
000000000F000000
000000001E000000
000000003C000000
0000000078000000
00000000F0000000
00000001E0000000
00000003C0000000
00000007C0000000
0000000780000000
0000000F00000000
0000001E00000000
0000003C00000000
0000007800000000
000000F000000000
000001E000000000
000003C000000000
0000078000000000
00000F0000000000
00001F0000000380
00001E0000000380
00003C0000000780
0000780000000780
0000F00000000F80
0001E00000000F00
0003C00000001F00
0007800000003F00
000F000000007F00
001E00000000FE00
003E00000001FE00
003C00000003FE00
00780000001FFE00
00F0000001FFFE00
01FFFFFFFFFFFC00
03FFFFFFFFFFFC00
07FFFFFFFFFFFC00
0FFFFFFFFFFFFC00
1FFFFFFFFFFFF800
3FFFFFFFFFFFF800
7FFFFFFFFFFFF800
FFFFFFFFFFFFF800
ENDCHAR
STARTCHAR 2212
ENCODING 8722
SWIDTH 836 0
DWIDTH 77 0
BBX 54 5 11 25
BITMAP
FFFFFFFFFFFFFC
FFFFFFFFFFFFFC
FFFFFFFFFFFFFC
FFFFFFFFFFFFFC
FFFFFFFFFFFFFC
ENDCHAR
STARTCHAR 2219
ENCODING 8729
SWIDTH 119 0
DWIDTH 11 0
BBX 7 7 2 22
BITMAP
10
38
7C
FE
7C
38
10
ENDCHAR
STARTCHAR 221A
ENCODING 8730
SWIDTH 554 0
DWIDTH 51 0
BBX 56 76 -1 -1
BITMAP
000000000003FF
000000000003FF
000000000003FF
000000000007FF
000000000007C0
00000000000FC0
00000000000FC0
00000000000F80
00000000001F80
00000000001F00
00000000001F00
00000000003F00
00000000003E00
00000000003E00
00000000007E00
00000000007C00
0000000000FC00
0000000000F800
0000000000F800
0000000001F800
0000000001F000
0000000001F000
0000000003F000
0000000003E000
0000000007E000
0000000007C000
0000000007C000
000000000FC000
000000000F8000
000000000F8000
000000001F8000
000800001F0000
007800003F0000
03FC00003F0000
1FFC00003E0000
FFFC00007E0000
FFFE00007C0000
E1FE00007C0000
01FE0000FC0000
01FF0000F80000
00FF0000F80000
00FF8001F80000
00FF8001F00000
007F8003F00000
007FC003E00000
007FC003E00000
003FC007E00000
003FE007C00000
001FE007C00000
001FE00FC00000
001FF00F800000
000FF01F800000
000FF81F000000
000FF81F000000
0007F83F000000
0007FC3E000000
0003FC3E000000
0003FC7E000000
0003FE7C000000
0001FEFC000000
0001FFF8000000
0001FFF8000000
0000FFF8000000
0000FFF0000000
00007FF0000000
00007FF0000000
00007FE0000000
00003FE0000000
00003FE0000000
00003FC0000000
00001FC0000000
00001F80000000
00001F80000000
00000F80000000
00000F00000000
00000700000000
ENDCHAR
STARTCHAR 221E
ENCODING 8734
SWIDTH 717 0
DWIDTH 66 0
BBX 56 35 5 10
BITMAP
003F800003F800
01FFE0000FFF00
03FFF0003FFF80
07FFFC007FFFC0
0FFFFC00FFFFE0
1FFFFE01FF81F0
1F807F03FE0078
3E001F83FC0038
3C000787F8001C
780003CFF0000C
700001CFE00006
600000FFE00006
E000007FC00006
E000007F800003
C000003F800003
C000007F000003
C000007F000003
C00000FE000003
C00000FE000003
C00001FC000003
C00001FC000007
C00003FC000007
C00003FE000006
600007FF00000E
60000FF700000E
70000FE380001E
30001FE3E0003C
38003FC1F0007C
1C00FF80FE03F8
0F03FF80FFFFF8
0FFFFF007FFFF0
07FFFE003FFFE0
01FFFC001FFFC0
00FFF00007FF80
001FC00001FC00
ENDCHAR
STARTCHAR 222B
ENCODING 8747
SWIDTH 271 0
DWIDTH 25 0
BBX 41 87 -8 -17
BITMAP
00000001F800
0000000FFE00
0000001FFF00
0000007FFF80
00000079FF80
000000F0FF80
000001E0FF80
000003E07F80
000003E07F80
000007E03F80
000007C01E00
00000FC00000
00000FC00000
00000FC00000
00001FC00000
00001FC00000
00001FC00000
00001FC00000
00001FC00000
00003F800000
00003F800000
00003F800000
00003F800000
00003F800000
00003F800000
00003F800000
00007F800000
00007F800000
00007F800000
00007F800000
00007F800000
00007F800000
00007F800000
00007F800000
00007F800000
00007F800000
00007F800000
00007F800000
00007F800000
00007F800000
00007F800000
0000FF800000
0000FF800000
0000FF800000
0000FF800000
0000FF800000
0000FF800000
0000FF800000
0000FF800000
0000FF800000
0000FF000000
0000FF000000
0000FF000000
0000FF000000
0000FF000000
0000FF000000
0000FF000000
0000FF000000
0000FF000000
0000FF000000
0000FF000000
0000FF000000
0000FF000000
0000FE000000
0000FE000000
0000FE000000
0000FE000000
0000FE000000
0000FE000000
0000FC000000
0000FC000000
0001FC000000
0001FC000000
0001F8000000
0001F8000000
0001F8000000
3C01F0000000
7E01F0000000
FF03E0000000
FF03E0000000
FF83C0000000
FF8780000000
FFCF80000000
FFFF00000000
7FFE00000000
3FF800000000
0FE000000000
ENDCHAR
STARTCHAR 2248
ENCODING 8776
SWIDTH 554 0
DWIDTH 51 0
BBX 47 23 2 10
BITMAP
000000000002
000000000006
003FE000001E
01FFFE00003E
0FFFFFC000FE
3FFFFFFC07FE
7FFFFFFFFFFE
FFFFFFFFFFFC
FFC03FFFFFF0
FE0003FFFFC0
F800007FFF00
E0000007F802
803FC0000006
01FFFC00001E
07FFFF80003E
1FFFFFE000FE
7FFFFFFC07FE
FFFFFFFFFFFE
FFC07FFFFFFC
FE0007FFFFF0
F80000FFFFE0
E000001FFF00
C0000003F800
ENDCHAR
STARTCHAR 2260
ENCODING 8800
SWIDTH 554 0
DWIDTH 51 0
BBX 42 39 4 2
BITMAP
000000000800
000000001E00
000000003F00
000000007F00
00000000FE00
00000001FC00
00000003F800
00000007F000
0000000FE000
0000001FC000
FFFFFFFFFFC0
FFFFFFFFFFC0
FFFFFFFFFFC0
FFFFFFFFFFC0
FFFFFFFFFFC0
000007F00000
00000FE00000
00000FC00000
00001F800000
00003F000000
00007F000000
0000FE000000
0001FC000000
FFFFFFFFFFC0
FFFFFFFFFFC0
FFFFFFFFFFC0
FFFFFFFFFFC0
FFFFFFFFFFC0
007F00000000
00FE00000000
01FC00000000
03F800000000
07F000000000
0FE000000000
1FC000000000
3F8000000000
1F0000000000
0E0000000000
040000000000
ENDCHAR
STARTCHAR 2264
ENCODING 8804
SWIDTH 554 0
DWIDTH 51 0
BBX 42 45 4 -1
BITMAP
000000000040
0000000003C0
000000001FC0
00000001FFC0
0000000FFFC0
0000007FFFC0
000003FFFC00
00001FFFE000
0000FFFF0000
0007FFF80000
003FFFC00000
01FFFE000000
0FFFF0000000
FFFF80000000
FFFC00000000
FFE000000000
FF8000000000
FFF000000000
FFFE00000000
7FFFC0000000
07FFF8000000
00FFFF800000
001FFFF00000
0003FFFE0000
00007FFFC000
000007FFF800
000000FFFF00
0000001FFFC0
00000003FFC0
000000007FC0
0000000007C0
0000000000C0
000000000000
000000000000
000000000000
000000000000
000000000000
000000000000
000000000000
FFFFFFFFFFC0
FFFFFFFFFFC0
FFFFFFFFFFC0
FFFFFFFFFFC0
FFFFFFFFFFC0
FFFFFFFFFFC0
ENDCHAR
STARTCHAR 2265
ENCODING 8805
SWIDTH 554 0
DWIDTH 51 0
BBX 42 45 4 -1
BITMAP
C00000000000
F80000000000
FF0000000000
FFE000000000
FFFC00000000
7FFF80000000
0FFFF0000000
01FFFF000000
003FFFE00000
0007FFFC0000
00007FFF8000
00000FFFF000
000001FFFE00
0000003FFFC0
00000007FFC0
00000000FFC0
000000003FC0
00000001FFC0
0000000FFFC0
000000FFFF80
000007FFFC00
00003FFFE000
0001FFFF0000
000FFFF00000
00FFFF800000
07FFFC000000
3FFFE0000000
FFFF00000000
FFF000000000
FF8000000000
FC0000000000
E00000000000
000000000000
000000000000
000000000000
000000000000
000000000000
000000000000
000000000000
FFFFFFFFFFC0
FFFFFFFFFFC0
FFFFFFFFFFC0
FFFFFFFFFFC0
FFFFFFFFFFC0
FFFFFFFFFFC0
ENDCHAR
STARTCHAR 22F2
ENCODING 8946
SWIDTH 554 0
DWIDTH 51 0
BBX 47 23 2 10
BITMAP
000000000002
000000000006
003FE000001E
01FFFE00003E
0FFFFFC000FE
3FFFFFFC07FE
7FFFFFFFFFFE
FFFFFFFFFFFC
FFC03FFFFFF0
FE0003FFFFC0
F800007FFF00
E0000007F802
803FC0000006
01FFFC00001E
07FFFF80003E
1FFFFFE000FE
7FFFFFFC07FE
FFFFFFFFFFFE
FFC07FFFFFFC
FE0007FFFFF0
F80000FFFFE0
E000001FFF00
C0000003F800
ENDCHAR
STARTCHAR 25CA
ENCODING 9674
SWIDTH 489 0
DWIDTH 45 0
BBX 45 95 0 -21
BITMAP
000002000000
000002000000
000003000000
000007000000
000007800000
00000F800000
00000FC00000
00001FC00000
00001FE00000
00003FE00000
00003FF00000
00007FF00000
00007DF80000
0000FCF80000
0000F8FC0000
0001F87C0000
0001F07E0000
0003F07E0000
0003F03E0000
0007E03F0000
0007E01F0000
0007C01F8000
000FC00F8000
000F800FC000
001F8007C000
001F0007E000
003F0003E000
003E0003F000
007E0001F000
007C0001F800
00FC0000F800
00F80000FC00
01F800007C00
01F000007E00
03F000003E00
03E000003F00
07E000003F00
07E000001F00
0FC000001F80
0FC000000F80
0F8000000FC0
1F80000007C0
1F00000007E0
3F00000003E0
3E00000003F0
7E00000001F0
7C00000001F8
FC00000000F8
7C00000001F8
7E00000001F0
3E00000003F0
3F00000003E0
1F00000007E0
1F80000007C0
0F8000000FC0
0FC000000F80
07C000001F80
07E000001F00
03E000003F00
03F000003E00
03F000007E00
01F000007E00
01F800007C00
00F80000FC00
00FC0000F800
007C0001F800
007E0001F000
003E0003F000
003F0003E000
001F0007E000
001F8007C000
000F800FC000
000FC00F8000
0007C01F8000
0007E01F0000
0003E03F0000
0003F03E0000
0003F07E0000
0001F07E0000
0001F8FC0000
0000F8FC0000
0000FCF80000
00007DF80000
00007FF00000
00003FF00000
00003FE00000
00001FE00000
00001FC00000
00000FC00000
00000F800000
000007800000
000007000000
000003000000
000002000000
000002000000
ENDCHAR
STARTCHAR F000
ENCODING 61440
SWIDTH 793 0
DWIDTH 73 0
BBX 62 75 5 -1
BITMAP
0000000000060000
00000000003E0000
0000000000FE0000
0000000001FE0000
0000000003FE0000
0000000007FE0000
000000000FFE0000
000000001FFC0000
000000001FFC0000
000000003FF80000
000000003FF80000
000000007FF00000
000000007FE00000
000000007FC00000
00000000FF800000
00000000FE000000
00000000FC000000
0001FF00007FC000
000FFFE003FFF800
003FFFFC1FFFFE00
007FFFFFFFFFFF80
01FFFFFFFFFFFFC0
03FFFFFFFFFFFFE0
07FFFFFFFFFFFFF0
07FFFFFFFFFFFFF0
0FFFFFFFFFFFFFE0
1FFFFFFFFFFFFFC0
1FFFFFFFFFFFFF80
3FFFFFFFFFFFFF00
3FFFFFFFFFFFFE00
3FFFFFFFFFFFFC00
7FFFFFFFFFFFFC00
7FFFFFFFFFFFF800
7FFFFFFFFFFFF800
7FFFFFFFFFFFF800
FFFFFFFFFFFFF000
FFFFFFFFFFFFF000
FFFFFFFFFFFFF000
FFFFFFFFFFFFF000
FFFFFFFFFFFFF000
FFFFFFFFFFFFF000
FFFFFFFFFFFFF000
FFFFFFFFFFFFF000
FFFFFFFFFFFFF000
FFFFFFFFFFFFF800
7FFFFFFFFFFFF800
7FFFFFFFFFFFF800
7FFFFFFFFFFFFC00
7FFFFFFFFFFFFE00
7FFFFFFFFFFFFE00
3FFFFFFFFFFFFF00
3FFFFFFFFFFFFF80
3FFFFFFFFFFFFFC0
3FFFFFFFFFFFFFF0
1FFFFFFFFFFFFFFC
1FFFFFFFFFFFFFFC
0FFFFFFFFFFFFFFC
0FFFFFFFFFFFFFF8
07FFFFFFFFFFFFF8
07FFFFFFFFFFFFF0
03FFFFFFFFFFFFF0
03FFFFFFFFFFFFE0
01FFFFFFFFFFFFE0
01FFFFFFFFFFFFC0
00FFFFFFFFFFFFC0
00FFFFFFFFFFFF80
007FFFFFFFFFFF00
003FFFFFFFFFFF00
001FFFFFFFFFFE00
001FFFFFFFFFFC00
000FFFFFFFFFF800
0007FFFE3FFFF000
0001FFF007FFE000
0000FFC001FFC000
00001F00007E0000
ENDCHAR
STARTCHAR F001
ENCODING 61441
SWIDTH 271 0
DWIDTH 25 0
BBX 21 74 1 -1
BITMAP
01F800
03FC00
07FE00
0FF000
1F1000
1E0000
1E0000
1E0000
1E0000
1E0000
1E0000
1E0000
1E0000
1E0000
1E0000
1E0000
1E0000
1E0000
1E0000
1E0000
1E0000
1E0060
1E00F0
1E01F8
1E01F8
1E00F0
1E0060
1E0000
1E0000
1E0000
1E0000
1E0000
1E0000
1E0000
1E0000
1E0000
1E0000
1FFFF8
3FFFF8
7FFFF8
FFFFF8
1E0078
1E0078
1E0078
1E0078
1E0078
1E0078
1E0078
1E0078
1E0078
1E0078
1E0078
1E0078
1E0078
1E0078
1E0078
1E0078
1E0078
1E0078
1E0078
1E0078
1E0078
1E0078
1E0078
1E0078
1E0078
1E0078
1E0078
1E0078
1E0078
1E0078
1E0078
1E0078
120048
ENDCHAR
STARTCHAR F002
ENCODING 61442
SWIDTH 260 0
DWIDTH 24 0
BBX 22 76 0 -1
BITMAP
000008
01F008
03FC18
0FFE38
0FFE78
1F1C78
1E0878
1E0078
1E0078
1E0078
1E0078
1E0078
1E0078
1E0078
1E0078
1E0078
1E0078
1E0078
1E0078
1E0078
1E0078
1E0078
1E0078
1E0078
1E0078
1E0078
1E0078
1E0078
1E0078
1E0078
1E0078
1E0078
1E0078
1E0078
1E0078
1E0078
1E0078
1E0078
1FF878
3FF078
7FF078
FFF878
1E0078
1E0078
1E0078
1E0078
1E0078
1E0078
1E0078
1E0078
1E0078
1E0078
1E0078
1E0078
1E0078
1E0078
1E0078
1E0078
1E0078
1E0078
1E0078
1E0078
1E0078
1E0078
1E0078
1E0078
1E0078
1E0078
1E0078
1E0078
1E0078
1E0078
1E0078
1E003C
120020
020000
ENDCHAR
ENDFONT
